G04*
G04 #@! TF.GenerationSoftware,Altium Limited,Altium Designer,21.9.2 (33)*
G04*
G04 Layer_Physical_Order=4*
G04 Layer_Color=16711680*
%FSLAX25Y25*%
%MOIN*%
G70*
G04*
G04 #@! TF.SameCoordinates,1223ADA4-3529-4512-854F-09A9CE28B868*
G04*
G04*
G04 #@! TF.FilePolarity,Positive*
G04*
G01*
G75*
%ADD43C,0.19685*%
%ADD44C,0.11811*%
%ADD45C,0.05906*%
%ADD46C,0.06000*%
%ADD47C,0.16000*%
%ADD48C,0.01772*%
%ADD49C,0.01968*%
%ADD50C,0.02362*%
G36*
X67604Y-5211D02*
X68605Y-5626D01*
X69506Y-6228D01*
X70272Y-6994D01*
X70874Y-7895D01*
X71289Y-8896D01*
X71500Y-9958D01*
Y-10500D01*
Y-30000D01*
X71524Y-30490D01*
X71715Y-31451D01*
X72090Y-32357D01*
X72635Y-33172D01*
X73328Y-33865D01*
X74143Y-34410D01*
X75049Y-34785D01*
X76010Y-34976D01*
X76500Y-35000D01*
X89492D01*
X90458Y-35192D01*
X91368Y-35569D01*
X92187Y-36116D01*
X92884Y-36813D01*
X93431Y-37632D01*
X93808Y-38542D01*
X94000Y-39507D01*
Y-40000D01*
Y-52992D01*
X93808Y-53958D01*
X93431Y-54868D01*
X92884Y-55687D01*
X92187Y-56384D01*
X91368Y-56931D01*
X90458Y-57308D01*
X89492Y-57500D01*
X23507D01*
X22542Y-57308D01*
X21632Y-56931D01*
X20813Y-56384D01*
X20116Y-55687D01*
X19569Y-54868D01*
X19192Y-53958D01*
X19000Y-52992D01*
Y-52500D01*
Y-10000D01*
Y-9508D01*
X19192Y-8542D01*
X19569Y-7632D01*
X19790Y-7300D01*
X20219Y-7288D01*
X20371Y-7331D01*
X20715Y-7675D01*
X21224Y-7886D01*
X21776D01*
X22285Y-7675D01*
X22675Y-7285D01*
X22886Y-6776D01*
Y-6224D01*
X22675Y-5715D01*
X22649Y-5689D01*
X22645Y-5672D01*
X22806Y-5139D01*
X23507Y-5000D01*
X66542D01*
X67604Y-5211D01*
D02*
G37*
G36*
X66066Y-68152D02*
X66348Y-68434D01*
X66500Y-68801D01*
Y-69000D01*
Y-84000D01*
Y-84199D01*
X66348Y-84566D01*
X66066Y-84848D01*
X65699Y-85000D01*
X51000D01*
X50409Y-85000D01*
X49250Y-84769D01*
X48158Y-84317D01*
X47175Y-83661D01*
X46339Y-82825D01*
X45683Y-81842D01*
X45231Y-80750D01*
X45000Y-79591D01*
X45000Y-79000D01*
Y-79000D01*
Y-74500D01*
X45000Y-73860D01*
X45250Y-72604D01*
X45740Y-71421D01*
X46451Y-70357D01*
X47357Y-69451D01*
X48421Y-68740D01*
X49604Y-68250D01*
X50860Y-68000D01*
X51500Y-68000D01*
X51500Y-68000D01*
X65699D01*
X66066Y-68152D01*
D02*
G37*
G36*
X99000Y-67500D02*
X99345D01*
X100021Y-67634D01*
X100658Y-67898D01*
X101231Y-68281D01*
X101719Y-68769D01*
X102102Y-69342D01*
X102366Y-69979D01*
X102500Y-70655D01*
Y-71000D01*
Y-71345D01*
X102366Y-72021D01*
X102102Y-72658D01*
X101719Y-73231D01*
X101231Y-73719D01*
X100658Y-74102D01*
X100021Y-74366D01*
X99345Y-74500D01*
X99000D01*
X69500Y-74500D01*
X69301D01*
X68933Y-74348D01*
X68652Y-74067D01*
X68500Y-73699D01*
Y-73500D01*
Y-68500D01*
Y-68301D01*
X68652Y-67934D01*
X68933Y-67652D01*
X69301Y-67500D01*
X99000D01*
Y-67500D01*
D02*
G37*
%LPC*%
G36*
X42776Y-8614D02*
X42224D01*
X41715Y-8825D01*
X41325Y-9215D01*
X41114Y-9724D01*
Y-10276D01*
X41325Y-10785D01*
X41715Y-11175D01*
X42224Y-11386D01*
X42776D01*
X43285Y-11175D01*
X43675Y-10785D01*
X43886Y-10276D01*
Y-9724D01*
X43675Y-9215D01*
X43285Y-8825D01*
X42776Y-8614D01*
D02*
G37*
G36*
X38276Y-11114D02*
X37724D01*
X37215Y-11325D01*
X36825Y-11715D01*
X36614Y-12224D01*
Y-12776D01*
X36825Y-13285D01*
X37215Y-13675D01*
X37724Y-13886D01*
X38276D01*
X38785Y-13675D01*
X39175Y-13285D01*
X39386Y-12776D01*
Y-12224D01*
X39175Y-11715D01*
X38785Y-11325D01*
X38276Y-11114D01*
D02*
G37*
G36*
X58626Y-12685D02*
X58035D01*
X57490Y-12911D01*
X57072Y-13329D01*
X56846Y-13874D01*
Y-14465D01*
X57072Y-15010D01*
X57490Y-15428D01*
X58035Y-15653D01*
X58626D01*
X59171Y-15428D01*
X59589Y-15010D01*
X59815Y-14465D01*
Y-13874D01*
X59589Y-13329D01*
X59171Y-12911D01*
X58626Y-12685D01*
D02*
G37*
G36*
X54295D02*
X53705D01*
X53159Y-12911D01*
X52742Y-13329D01*
X52516Y-13874D01*
Y-14465D01*
X52742Y-15010D01*
X53159Y-15428D01*
X53705Y-15653D01*
X54295D01*
X54841Y-15428D01*
X55258Y-15010D01*
X55484Y-14465D01*
Y-13874D01*
X55258Y-13329D01*
X54841Y-12911D01*
X54295Y-12685D01*
D02*
G37*
G36*
X49964D02*
X49374D01*
X48829Y-12911D01*
X48411Y-13329D01*
X48185Y-13874D01*
Y-14465D01*
X48411Y-15010D01*
X48829Y-15428D01*
X49374Y-15653D01*
X49964D01*
X50510Y-15428D01*
X50928Y-15010D01*
X51153Y-14465D01*
Y-13874D01*
X50928Y-13329D01*
X50510Y-12911D01*
X49964Y-12685D01*
D02*
G37*
G36*
X58626Y-17016D02*
X58035D01*
X57490Y-17242D01*
X57072Y-17659D01*
X56846Y-18205D01*
Y-18795D01*
X57072Y-19341D01*
X57490Y-19758D01*
X58035Y-19984D01*
X58626D01*
X59171Y-19758D01*
X59589Y-19341D01*
X59815Y-18795D01*
Y-18205D01*
X59589Y-17659D01*
X59171Y-17242D01*
X58626Y-17016D01*
D02*
G37*
G36*
X54295D02*
X53705D01*
X53159Y-17242D01*
X52742Y-17659D01*
X52516Y-18205D01*
Y-18795D01*
X52742Y-19341D01*
X53159Y-19758D01*
X53705Y-19984D01*
X54295D01*
X54841Y-19758D01*
X55258Y-19341D01*
X55484Y-18795D01*
Y-18205D01*
X55258Y-17659D01*
X54841Y-17242D01*
X54295Y-17016D01*
D02*
G37*
G36*
X49964D02*
X49374D01*
X48829Y-17242D01*
X48411Y-17659D01*
X48185Y-18205D01*
Y-18795D01*
X48411Y-19341D01*
X48829Y-19758D01*
X49374Y-19984D01*
X49964D01*
X50510Y-19758D01*
X50928Y-19341D01*
X51153Y-18795D01*
Y-18205D01*
X50928Y-17659D01*
X50510Y-17242D01*
X49964Y-17016D01*
D02*
G37*
G36*
X66276Y-12193D02*
X65724D01*
X65215Y-12404D01*
X64825Y-12794D01*
X64614Y-13303D01*
Y-13854D01*
X64825Y-14364D01*
X65215Y-14754D01*
X65252Y-14769D01*
Y-15310D01*
X65215Y-15325D01*
X64825Y-15715D01*
X64614Y-16224D01*
Y-16776D01*
X64825Y-17285D01*
X64964Y-17423D01*
X65168Y-17750D01*
X64964Y-18077D01*
X64825Y-18215D01*
X64614Y-18724D01*
Y-19276D01*
X64825Y-19785D01*
X65215Y-20175D01*
X65724Y-20386D01*
X65888D01*
X66114Y-20724D01*
Y-21276D01*
X66325Y-21785D01*
X66715Y-22175D01*
X67224Y-22386D01*
X67776D01*
X68285Y-22175D01*
X68675Y-21785D01*
X68886Y-21276D01*
Y-20724D01*
X68675Y-20215D01*
X68285Y-19825D01*
X67776Y-19614D01*
X67612D01*
X67386Y-19276D01*
Y-18724D01*
X67175Y-18215D01*
X67036Y-18077D01*
X66832Y-17750D01*
X67036Y-17423D01*
X67175Y-17285D01*
X67386Y-16776D01*
Y-16224D01*
X67175Y-15715D01*
X66785Y-15325D01*
X66748Y-15310D01*
Y-14769D01*
X66785Y-14754D01*
X67175Y-14364D01*
X67386Y-13854D01*
Y-13303D01*
X67175Y-12794D01*
X66785Y-12404D01*
X66276Y-12193D01*
D02*
G37*
G36*
X58626Y-21347D02*
X58035D01*
X57490Y-21572D01*
X57072Y-21990D01*
X56846Y-22535D01*
Y-23126D01*
X57072Y-23672D01*
X57490Y-24089D01*
X58035Y-24315D01*
X58626D01*
X59171Y-24089D01*
X59589Y-23672D01*
X59815Y-23126D01*
Y-22535D01*
X59589Y-21990D01*
X59171Y-21572D01*
X58626Y-21347D01*
D02*
G37*
G36*
X54295D02*
X53705D01*
X53159Y-21572D01*
X52742Y-21990D01*
X52516Y-22535D01*
Y-23126D01*
X52742Y-23672D01*
X53159Y-24089D01*
X53705Y-24315D01*
X54295D01*
X54841Y-24089D01*
X55258Y-23672D01*
X55484Y-23126D01*
Y-22535D01*
X55258Y-21990D01*
X54841Y-21572D01*
X54295Y-21347D01*
D02*
G37*
G36*
X49964D02*
X49374D01*
X48829Y-21572D01*
X48411Y-21990D01*
X48185Y-22535D01*
Y-23126D01*
X48411Y-23672D01*
X48829Y-24089D01*
X49374Y-24315D01*
X49964D01*
X50510Y-24089D01*
X50928Y-23672D01*
X51153Y-23126D01*
Y-22535D01*
X50928Y-21990D01*
X50510Y-21572D01*
X49964Y-21347D01*
D02*
G37*
G36*
X33276Y-26614D02*
X32724D01*
X32215Y-26825D01*
X31825Y-27215D01*
X31614Y-27724D01*
Y-28276D01*
X31825Y-28785D01*
X32215Y-29175D01*
X32724Y-29386D01*
X33276D01*
X33785Y-29175D01*
X34175Y-28785D01*
X34386Y-28276D01*
Y-27724D01*
X34175Y-27215D01*
X33785Y-26825D01*
X33276Y-26614D01*
D02*
G37*
G36*
X36776Y-31114D02*
X36224D01*
X35715Y-31325D01*
X35325Y-31715D01*
X35114Y-32224D01*
Y-32776D01*
X35325Y-33285D01*
X35715Y-33675D01*
X36224Y-33886D01*
X36776D01*
X37285Y-33675D01*
X37675Y-33285D01*
X37886Y-32776D01*
Y-32224D01*
X37675Y-31715D01*
X37285Y-31325D01*
X36776Y-31114D01*
D02*
G37*
G36*
X50949Y-32441D02*
X50398D01*
X49888Y-32652D01*
X49498Y-33042D01*
X49287Y-33551D01*
Y-34102D01*
X49498Y-34612D01*
X49888Y-35002D01*
X50398Y-35213D01*
X50949D01*
X51458Y-35002D01*
X51848Y-34612D01*
X52059Y-34102D01*
Y-33551D01*
X51848Y-33042D01*
X51458Y-32652D01*
X50949Y-32441D01*
D02*
G37*
G36*
X68776Y-39114D02*
X68224D01*
X67715Y-39325D01*
X67325Y-39715D01*
X67114Y-40224D01*
Y-40776D01*
X67325Y-41285D01*
X67715Y-41675D01*
X68224Y-41886D01*
X68776D01*
X69285Y-41675D01*
X69675Y-41285D01*
X69886Y-40776D01*
Y-40224D01*
X69675Y-39715D01*
X69285Y-39325D01*
X68776Y-39114D01*
D02*
G37*
G36*
X22276Y-39614D02*
X21724D01*
X21215Y-39825D01*
X20825Y-40215D01*
X20614Y-40724D01*
Y-41276D01*
X20825Y-41785D01*
X21215Y-42175D01*
X21724Y-42386D01*
X22276D01*
X22785Y-42175D01*
X23175Y-41785D01*
X23386Y-41276D01*
Y-40724D01*
X23175Y-40215D01*
X22785Y-39825D01*
X22276Y-39614D01*
D02*
G37*
G36*
X87276Y-44614D02*
X86724D01*
X86215Y-44825D01*
X85825Y-45215D01*
X85614Y-45724D01*
Y-46276D01*
X85825Y-46785D01*
X86215Y-47175D01*
X86724Y-47386D01*
X87276D01*
X87785Y-47175D01*
X88175Y-46785D01*
X88386Y-46276D01*
Y-45724D01*
X88175Y-45215D01*
X87785Y-44825D01*
X87276Y-44614D01*
D02*
G37*
G36*
X71276Y-45614D02*
X70724D01*
X70215Y-45825D01*
X69825Y-46215D01*
X69614Y-46724D01*
Y-47276D01*
X69825Y-47785D01*
X70215Y-48175D01*
X70724Y-48386D01*
X71276D01*
X71785Y-48175D01*
X72175Y-47785D01*
X72386Y-47276D01*
Y-46724D01*
X72175Y-46215D01*
X71785Y-45825D01*
X71276Y-45614D01*
D02*
G37*
G36*
X88276Y-49114D02*
X87724D01*
X87215Y-49325D01*
X86825Y-49715D01*
X86614Y-50224D01*
Y-50776D01*
X86825Y-51285D01*
X87215Y-51675D01*
X87724Y-51886D01*
X88276D01*
X88785Y-51675D01*
X89175Y-51285D01*
X89386Y-50776D01*
Y-50224D01*
X89175Y-49715D01*
X88785Y-49325D01*
X88276Y-49114D01*
D02*
G37*
%LPD*%
D43*
X85000Y-12500D02*
D03*
X12500Y-80500D02*
D03*
D44*
X31657Y-74315D02*
D03*
X51342D02*
D03*
D45*
X63153Y-113685D02*
D03*
X19847D02*
D03*
D46*
X99000Y-47200D02*
D03*
Y-59000D02*
D03*
Y-70800D02*
D03*
X85500Y-90500D02*
D03*
X97300D02*
D03*
X109100D02*
D03*
X120900D02*
D03*
D47*
X116000Y-59000D02*
D03*
X93950Y-107500D02*
D03*
X112450D02*
D03*
D48*
X21500Y-6500D02*
D03*
X26500D02*
D03*
X59500Y-49500D02*
D03*
X33000Y-28000D02*
D03*
X36500Y-32500D02*
D03*
X67500Y-21000D02*
D03*
X66000Y-19000D02*
D03*
Y-16500D02*
D03*
Y-13579D02*
D03*
X35681Y-17575D02*
D03*
X68819Y-26575D02*
D03*
X42500Y-10000D02*
D03*
X50673Y-33827D02*
D03*
X38000Y-12500D02*
D03*
X22000Y-41000D02*
D03*
X5500D02*
D03*
Y-46500D02*
D03*
Y-52000D02*
D03*
X68500Y-40500D02*
D03*
X22000Y-52000D02*
D03*
X71000Y-47000D02*
D03*
X88000Y-50500D02*
D03*
X87000Y-46000D02*
D03*
D49*
X49669Y-22831D02*
D03*
Y-18500D02*
D03*
Y-14169D02*
D03*
X54000Y-22831D02*
D03*
Y-18500D02*
D03*
Y-14169D02*
D03*
X58331Y-22831D02*
D03*
Y-18500D02*
D03*
Y-14169D02*
D03*
D50*
X64500Y-76000D02*
D03*
X57500Y-83000D02*
D03*
X61000D02*
D03*
Y-79500D02*
D03*
X64500D02*
D03*
Y-83000D02*
D03*
X85000Y-71500D02*
D03*
X76500D02*
D03*
X90500Y-40500D02*
D03*
M02*
