G04*
G04 #@! TF.GenerationSoftware,Altium Limited,Altium Designer,22.0.2 (36)*
G04*
G04 Layer_Physical_Order=3*
G04 Layer_Color=26112*
%FSLAX25Y25*%
%MOIN*%
G70*
G04*
G04 #@! TF.SameCoordinates,CF928A09-1532-4027-B1E1-A307E99A3D78*
G04*
G04*
G04 #@! TF.FilePolarity,Positive*
G04*
G01*
G75*
%ADD13C,0.00800*%
%ADD46C,0.06000*%
%ADD49C,0.01772*%
%ADD50C,0.02362*%
D13*
X64500Y-76000D02*
G03*
X65000Y-75500I0J500D01*
G01*
X85000Y-36721D02*
G03*
X82071Y-29650I-10000J0D01*
G01*
X82500Y-37142D02*
G03*
X79571Y-30071I-10000J0D01*
G01*
X69000Y-19500D02*
G03*
X67793Y-19000I-1207J-1207D01*
G01*
X85000Y-50500D02*
G03*
X93500Y-59000I8500J0D01*
G01*
X82500Y-59758D02*
G03*
X85429Y-66829I10000J0D01*
G01*
X80000Y-37642D02*
G03*
X77071Y-30571I-10000J0D01*
G01*
X36914Y-29500D02*
G03*
X34500Y-30500I0J-3414D01*
G01*
X59500Y-29500D02*
G03*
X62500Y-26500I0J3000D01*
G01*
X65000Y-16500D02*
G03*
X62500Y-19000I0J-2500D01*
G01*
X22000Y-41000D02*
G03*
X25414Y-39586I0J4828D01*
G01*
X35474Y-22026D02*
G03*
X33000Y-28000I5976J-5974D01*
G01*
X40632Y-16868D02*
G03*
X40633Y-16867I-4510J4510D01*
G01*
D02*
G03*
X42500Y-12358I-4512J4509D01*
G01*
X35475Y-22025D02*
G03*
X35474Y-22026I5975J-5975D01*
G01*
X73000Y-41000D02*
G03*
X69500Y-37500I-3500J0D01*
G01*
X38571Y-34571D02*
G03*
X45642Y-37500I7071J7071D01*
G01*
X80000Y-69058D02*
G03*
X82929Y-76129I10000J0D01*
G01*
X73000Y-73858D02*
G03*
X75929Y-80929I10000J0D01*
G01*
X58358Y-46500D02*
G03*
X65429Y-43571I0J10000D01*
G01*
X65000Y-75500D02*
Y-55000D01*
X60500Y-37500D02*
X69500D01*
X45642D02*
X60500D01*
X85000Y-50500D02*
Y-36721D01*
X66000Y-13579D02*
X82071Y-29650D01*
X82500Y-59758D02*
Y-37142D01*
X69000Y-19500D02*
X79571Y-30071D01*
X66000Y-19000D02*
X67793D01*
X93500Y-59000D02*
X99000D01*
X85429Y-66829D02*
X109100Y-90500D01*
X80000Y-69058D02*
Y-37642D01*
X67500Y-21000D02*
X77071Y-30571D01*
X36914Y-29500D02*
X59500D01*
X62500Y-26500D02*
Y-19000D01*
X65000Y-16500D02*
X66000D01*
X25414Y-39586D02*
X34500Y-30500D01*
X35475Y-22025D02*
X40632Y-16868D01*
X73000Y-73858D02*
Y-41000D01*
X36500Y-32500D02*
X38571Y-34571D01*
X82929Y-76129D02*
X97300Y-90500D01*
X42500Y-12358D02*
Y-10000D01*
X75929Y-80929D02*
X85500Y-90500D01*
X5500Y-46500D02*
X58358D01*
X65429Y-43571D02*
X68500Y-40500D01*
D46*
X99000Y-59000D02*
D03*
X85500Y-90500D02*
D03*
X97300D02*
D03*
X109100D02*
D03*
D49*
X65000Y-55000D02*
D03*
X33000Y-28000D02*
D03*
X36500Y-32500D02*
D03*
X67500Y-21000D02*
D03*
X66000Y-19000D02*
D03*
Y-16500D02*
D03*
Y-13579D02*
D03*
X42500Y-10000D02*
D03*
X22000Y-41000D02*
D03*
X5500Y-46500D02*
D03*
X68500Y-40500D02*
D03*
D50*
X64500Y-76000D02*
D03*
M02*
