G04*
G04 #@! TF.GenerationSoftware,Altium Limited,Altium Designer,21.9.2 (33)*
G04*
G04 Layer_Physical_Order=1*
G04 Layer_Color=255*
%FSLAX25Y25*%
%MOIN*%
G70*
G04*
G04 #@! TF.SameCoordinates,1223ADA4-3529-4512-854F-09A9CE28B868*
G04*
G04*
G04 #@! TF.FilePolarity,Positive*
G04*
G01*
G75*
%ADD10C,0.01000*%
%ADD13C,0.00800*%
%ADD16O,0.00984X0.02953*%
%ADD17O,0.02953X0.00984*%
G04:AMPARAMS|DCode=18|XSize=15.75mil|YSize=19.68mil|CornerRadius=3.94mil|HoleSize=0mil|Usage=FLASHONLY|Rotation=270.000|XOffset=0mil|YOffset=0mil|HoleType=Round|Shape=RoundedRectangle|*
%AMROUNDEDRECTD18*
21,1,0.01575,0.01181,0,0,270.0*
21,1,0.00787,0.01968,0,0,270.0*
1,1,0.00787,-0.00591,-0.00394*
1,1,0.00787,-0.00591,0.00394*
1,1,0.00787,0.00591,0.00394*
1,1,0.00787,0.00591,-0.00394*
%
%ADD18ROUNDEDRECTD18*%
G04:AMPARAMS|DCode=19|XSize=21.65mil|YSize=23.62mil|CornerRadius=5.41mil|HoleSize=0mil|Usage=FLASHONLY|Rotation=270.000|XOffset=0mil|YOffset=0mil|HoleType=Round|Shape=RoundedRectangle|*
%AMROUNDEDRECTD19*
21,1,0.02165,0.01280,0,0,270.0*
21,1,0.01083,0.02362,0,0,270.0*
1,1,0.01083,-0.00640,-0.00541*
1,1,0.01083,-0.00640,0.00541*
1,1,0.01083,0.00640,0.00541*
1,1,0.01083,0.00640,-0.00541*
%
%ADD19ROUNDEDRECTD19*%
G04:AMPARAMS|DCode=20|XSize=29.13mil|YSize=94.49mil|CornerRadius=7.28mil|HoleSize=0mil|Usage=FLASHONLY|Rotation=180.000|XOffset=0mil|YOffset=0mil|HoleType=Round|Shape=RoundedRectangle|*
%AMROUNDEDRECTD20*
21,1,0.02913,0.07992,0,0,180.0*
21,1,0.01457,0.09449,0,0,180.0*
1,1,0.01457,-0.00728,0.03996*
1,1,0.01457,0.00728,0.03996*
1,1,0.01457,0.00728,-0.03996*
1,1,0.01457,-0.00728,-0.03996*
%
%ADD20ROUNDEDRECTD20*%
G04:AMPARAMS|DCode=21|XSize=19.68mil|YSize=23.62mil|CornerRadius=4.92mil|HoleSize=0mil|Usage=FLASHONLY|Rotation=0.000|XOffset=0mil|YOffset=0mil|HoleType=Round|Shape=RoundedRectangle|*
%AMROUNDEDRECTD21*
21,1,0.01968,0.01378,0,0,0.0*
21,1,0.00984,0.02362,0,0,0.0*
1,1,0.00984,0.00492,-0.00689*
1,1,0.00984,-0.00492,-0.00689*
1,1,0.00984,-0.00492,0.00689*
1,1,0.00984,0.00492,0.00689*
%
%ADD21ROUNDEDRECTD21*%
G04:AMPARAMS|DCode=22|XSize=21.65mil|YSize=31.5mil|CornerRadius=5.41mil|HoleSize=0mil|Usage=FLASHONLY|Rotation=180.000|XOffset=0mil|YOffset=0mil|HoleType=Round|Shape=RoundedRectangle|*
%AMROUNDEDRECTD22*
21,1,0.02165,0.02067,0,0,180.0*
21,1,0.01083,0.03150,0,0,180.0*
1,1,0.01083,-0.00541,0.01034*
1,1,0.01083,0.00541,0.01034*
1,1,0.01083,0.00541,-0.01034*
1,1,0.01083,-0.00541,-0.01034*
%
%ADD22ROUNDEDRECTD22*%
G04:AMPARAMS|DCode=23|XSize=39.37mil|YSize=57.09mil|CornerRadius=9.84mil|HoleSize=0mil|Usage=FLASHONLY|Rotation=270.000|XOffset=0mil|YOffset=0mil|HoleType=Round|Shape=RoundedRectangle|*
%AMROUNDEDRECTD23*
21,1,0.03937,0.03740,0,0,270.0*
21,1,0.01968,0.05709,0,0,270.0*
1,1,0.01968,-0.01870,-0.00984*
1,1,0.01968,-0.01870,0.00984*
1,1,0.01968,0.01870,0.00984*
1,1,0.01968,0.01870,-0.00984*
%
%ADD23ROUNDEDRECTD23*%
G04:AMPARAMS|DCode=24|XSize=21.65mil|YSize=23.62mil|CornerRadius=5.41mil|HoleSize=0mil|Usage=FLASHONLY|Rotation=180.000|XOffset=0mil|YOffset=0mil|HoleType=Round|Shape=RoundedRectangle|*
%AMROUNDEDRECTD24*
21,1,0.02165,0.01280,0,0,180.0*
21,1,0.01083,0.02362,0,0,180.0*
1,1,0.01083,-0.00541,0.00640*
1,1,0.01083,0.00541,0.00640*
1,1,0.01083,0.00541,-0.00640*
1,1,0.01083,-0.00541,-0.00640*
%
%ADD24ROUNDEDRECTD24*%
G04:AMPARAMS|DCode=25|XSize=62.99mil|YSize=39.37mil|CornerRadius=9.84mil|HoleSize=0mil|Usage=FLASHONLY|Rotation=0.000|XOffset=0mil|YOffset=0mil|HoleType=Round|Shape=RoundedRectangle|*
%AMROUNDEDRECTD25*
21,1,0.06299,0.01968,0,0,0.0*
21,1,0.04331,0.03937,0,0,0.0*
1,1,0.01968,0.02165,-0.00984*
1,1,0.01968,-0.02165,-0.00984*
1,1,0.01968,-0.02165,0.00984*
1,1,0.01968,0.02165,0.00984*
%
%ADD25ROUNDEDRECTD25*%
G04:AMPARAMS|DCode=26|XSize=15.75mil|YSize=19.68mil|CornerRadius=3.94mil|HoleSize=0mil|Usage=FLASHONLY|Rotation=0.000|XOffset=0mil|YOffset=0mil|HoleType=Round|Shape=RoundedRectangle|*
%AMROUNDEDRECTD26*
21,1,0.01575,0.01181,0,0,0.0*
21,1,0.00787,0.01968,0,0,0.0*
1,1,0.00787,0.00394,-0.00591*
1,1,0.00787,-0.00394,-0.00591*
1,1,0.00787,-0.00394,0.00591*
1,1,0.00787,0.00394,0.00591*
%
%ADD26ROUNDEDRECTD26*%
%ADD41C,0.01600*%
%ADD42R,0.13386X0.13386*%
%ADD43C,0.19685*%
%ADD44C,0.11811*%
%ADD45C,0.05906*%
%ADD46C,0.06000*%
%ADD47C,0.16000*%
%ADD48C,0.01772*%
%ADD49C,0.01968*%
%ADD50C,0.02362*%
G36*
X41500Y-11500D02*
X41500Y-11500D01*
X41500Y-11500D01*
X41957Y-11590D01*
X42072Y-11637D01*
X42270Y-11769D01*
X42353Y-11854D01*
X42500Y-12000D01*
Y-12000D01*
X42624Y-12112D01*
X42902Y-12298D01*
X43212Y-12427D01*
X43540Y-12492D01*
X43650Y-12497D01*
X43764Y-12520D01*
X44147D01*
X44283Y-12576D01*
X44424Y-12717D01*
X44500Y-12901D01*
Y-14099D01*
X44424Y-14283D01*
X44283Y-14424D01*
X44100Y-14500D01*
X42000D01*
X41900Y-14433D01*
X41591Y-14372D01*
X40409D01*
X40100Y-14433D01*
X39837Y-14609D01*
X39716Y-14791D01*
X39646Y-14854D01*
X38881Y-15619D01*
X38601Y-15806D01*
X38291Y-15934D01*
X37961Y-16000D01*
X37793Y-16000D01*
X36801D01*
X36434Y-15848D01*
X36152Y-15566D01*
X36000Y-15199D01*
Y-12301D01*
X36152Y-11934D01*
X36434Y-11652D01*
X36801Y-11500D01*
X41500D01*
X41500Y-11500D01*
D02*
G37*
G36*
X92066Y-38652D02*
X92348Y-38934D01*
X92500Y-39301D01*
Y-39500D01*
Y-41500D01*
Y-41699D01*
X92348Y-42066D01*
X92066Y-42348D01*
X91699Y-42500D01*
X88000D01*
X87900Y-42433D01*
X87590Y-42372D01*
X87103D01*
X87000Y-42351D01*
X86897Y-42372D01*
X86409D01*
X86100Y-42433D01*
X86000Y-42500D01*
X77801D01*
X77434Y-42348D01*
X77152Y-42066D01*
X77000Y-41699D01*
Y-41500D01*
Y-41000D01*
Y-39500D01*
Y-39301D01*
X77152Y-38934D01*
X77434Y-38652D01*
X77801Y-38500D01*
X91699D01*
X92066Y-38652D01*
D02*
G37*
G36*
X66066Y-68152D02*
X66348Y-68434D01*
X66500Y-68801D01*
Y-69000D01*
Y-79000D01*
X66519Y-79195D01*
X66668Y-79556D01*
X66944Y-79831D01*
X67305Y-79981D01*
X67500Y-80000D01*
X75699D01*
X76066Y-80152D01*
X76348Y-80434D01*
X76500Y-80801D01*
Y-81000D01*
Y-84000D01*
Y-84199D01*
X76348Y-84566D01*
X76066Y-84848D01*
X75699Y-85000D01*
X51000D01*
X50409Y-85000D01*
X49250Y-84769D01*
X48158Y-84317D01*
X47175Y-83661D01*
X46339Y-82825D01*
X45683Y-81842D01*
X45231Y-80750D01*
X45000Y-79591D01*
X45000Y-79000D01*
Y-79000D01*
Y-74500D01*
X45000Y-73860D01*
X45250Y-72604D01*
X45740Y-71421D01*
X46451Y-70357D01*
X47357Y-69451D01*
X48421Y-68740D01*
X49604Y-68250D01*
X50860Y-68000D01*
X51500Y-68000D01*
X51500Y-68000D01*
X65699D01*
X66066Y-68152D01*
D02*
G37*
G36*
X83566Y-48652D02*
X83848Y-48934D01*
X84000Y-49301D01*
Y-49500D01*
Y-52500D01*
X84019Y-52695D01*
X84168Y-53056D01*
X84444Y-53332D01*
X84805Y-53481D01*
X85000Y-53500D01*
X88699D01*
X89066Y-53652D01*
X89348Y-53934D01*
X89500Y-54301D01*
Y-54500D01*
Y-66500D01*
X89519Y-66695D01*
X89669Y-67056D01*
X89944Y-67331D01*
X90305Y-67481D01*
X90500Y-67500D01*
X99345D01*
X100021Y-67634D01*
X100658Y-67898D01*
X101231Y-68281D01*
X101719Y-68769D01*
X102102Y-69342D01*
X102366Y-69979D01*
X102500Y-70655D01*
Y-71000D01*
Y-71345D01*
X102366Y-72021D01*
X102102Y-72658D01*
X101719Y-73231D01*
X101231Y-73719D01*
X100658Y-74102D01*
X100021Y-74366D01*
X99345Y-74500D01*
X69301D01*
X68933Y-74348D01*
X68652Y-74067D01*
X68500Y-73699D01*
Y-73500D01*
Y-54500D01*
Y-54301D01*
X68652Y-53934D01*
X68933Y-53652D01*
X69301Y-53500D01*
X76000D01*
X76195Y-53481D01*
X76556Y-53332D01*
X76832Y-53056D01*
X76981Y-52695D01*
X77000Y-52500D01*
Y-49500D01*
Y-49301D01*
X77152Y-48934D01*
X77434Y-48652D01*
X77801Y-48500D01*
X83199D01*
X83566Y-48652D01*
D02*
G37*
G36*
X88566Y-80152D02*
X88848Y-80434D01*
X89000Y-80801D01*
Y-81000D01*
Y-90500D01*
Y-90845D01*
X88866Y-91521D01*
X88602Y-92158D01*
X88219Y-92731D01*
X87731Y-93219D01*
X87158Y-93602D01*
X86521Y-93866D01*
X85845Y-94000D01*
X85155D01*
X84479Y-93866D01*
X83842Y-93602D01*
X83269Y-93219D01*
X82781Y-92731D01*
X82398Y-92158D01*
X82134Y-91521D01*
X82000Y-90845D01*
Y-90500D01*
Y-81000D01*
Y-80801D01*
X82152Y-80434D01*
X82433Y-80152D01*
X82801Y-80000D01*
X88199D01*
X88566Y-80152D01*
D02*
G37*
D10*
X67000Y-26575D02*
G03*
X64139Y-25390I-2861J-2861D01*
G01*
X68819Y-26575D02*
G03*
X69000Y-26500I0J255D01*
G01*
X33000Y-40791D02*
G03*
X34862Y-42654I1862J0D01*
G01*
X40327Y-28371D02*
G03*
X40173Y-28000I-524J0D01*
G01*
X47110Y-30977D02*
G03*
X47327Y-31500I739J0D01*
G01*
X49669Y-14169D02*
G03*
X49079Y-13579I-591J0D01*
G01*
X58331Y-22831D02*
G03*
X58921Y-23421I591J0D01*
G01*
X37500Y-17516D02*
X44748D01*
X37500Y-17575D02*
Y-17516D01*
X41020Y-15555D02*
X44740D01*
X44748Y-13579D02*
X49079D01*
X44740Y-15555D02*
X44748Y-15547D01*
X41000Y-15575D02*
X41020Y-15555D01*
X58921Y-23421D02*
X63252D01*
X66996D02*
X67000Y-23425D01*
X63252Y-25390D02*
X64139D01*
X63252Y-23421D02*
X66996D01*
D13*
X64831Y-19484D02*
G03*
X66000Y-19000I0J1653D01*
G01*
X66407Y-21453D02*
G03*
X67500Y-21000I0J1546D01*
G01*
X28047Y-21453D02*
G03*
X26500Y-23000I0J-1547D01*
G01*
X24516Y-19484D02*
G03*
X21500Y-22500I0J-3016D01*
G01*
X63548Y-17516D02*
G03*
X66000Y-16500I0J3468D01*
G01*
X37000Y-28418D02*
G03*
X36827Y-28000I-591J0D01*
G01*
X36500Y-32500D02*
G03*
X36827Y-31711I-789J789D01*
G01*
X42500Y-10000D02*
G03*
X44110Y-11610I1610J0D01*
G01*
X68500Y-40500D02*
G03*
X68690Y-40579I190J190D01*
G01*
X26673Y-52673D02*
G03*
X31500Y-57500I4827J0D01*
G01*
X72748Y-36827D02*
G03*
X71260Y-38315I0J-1489D01*
G01*
X63252Y-19484D02*
X64831D01*
X26500Y-28177D02*
Y-23000D01*
X28047Y-21453D02*
X44748D01*
X21500Y-28177D02*
Y-22500D01*
X24516Y-19484D02*
X44748D01*
X63252Y-17516D02*
X63548D01*
X33000Y-32827D02*
Y-28000D01*
X36827Y-31711D02*
Y-28000D01*
X63252Y-21453D02*
X66407D01*
X63252Y-13579D02*
X66000D01*
X44110Y-11610D02*
X44748D01*
X33000Y-40791D02*
Y-36173D01*
X40327Y-31500D02*
Y-28371D01*
X47110Y-30977D02*
Y-27752D01*
X43673Y-31500D02*
X47327D01*
X44719Y-17545D02*
X44748Y-17516D01*
X11772Y-41000D02*
X15827D01*
X19173D02*
X22000D01*
X5500Y-46500D02*
X8228D01*
X68690Y-40579D02*
X71260D01*
Y-38315D01*
X31500Y-57500D02*
X68500D01*
X26673Y-52673D02*
Y-46500D01*
X19173D02*
X23327D01*
X11772D02*
X15827D01*
X11772Y-52000D02*
X15827D01*
X72748Y-36827D02*
X83500D01*
D16*
X47110Y-27752D02*
D03*
X49079D02*
D03*
X51047D02*
D03*
X53016D02*
D03*
X54984D02*
D03*
X56953D02*
D03*
X58921D02*
D03*
X60890D02*
D03*
Y-9248D02*
D03*
X58921D02*
D03*
X56953D02*
D03*
X54984D02*
D03*
X53016D02*
D03*
X51047D02*
D03*
X49079D02*
D03*
X47110D02*
D03*
D17*
X63252Y-25390D02*
D03*
Y-23421D02*
D03*
Y-21453D02*
D03*
Y-19484D02*
D03*
Y-17516D02*
D03*
Y-15547D02*
D03*
Y-13579D02*
D03*
Y-11610D02*
D03*
X44748D02*
D03*
Y-13579D02*
D03*
Y-15547D02*
D03*
Y-17516D02*
D03*
Y-19484D02*
D03*
Y-21453D02*
D03*
Y-23421D02*
D03*
Y-25390D02*
D03*
D18*
X67000Y-26575D02*
D03*
Y-23425D02*
D03*
X41000Y-12425D02*
D03*
Y-15575D02*
D03*
X37500Y-14425D02*
D03*
Y-17575D02*
D03*
X87000Y-40425D02*
D03*
Y-43575D02*
D03*
D19*
X47327Y-31500D02*
D03*
X50673D02*
D03*
X40327D02*
D03*
X43673D02*
D03*
X40173Y-28000D02*
D03*
X36827D02*
D03*
X19173Y-52000D02*
D03*
X15827D02*
D03*
X19173Y-46500D02*
D03*
X15827D02*
D03*
X26673D02*
D03*
X23327D02*
D03*
X15827Y-41000D02*
D03*
X19173D02*
D03*
D20*
X6500Y-28177D02*
D03*
X11500D02*
D03*
X16500D02*
D03*
X21500D02*
D03*
X26500D02*
D03*
X6500Y-12823D02*
D03*
X11500D02*
D03*
X16500D02*
D03*
X21500D02*
D03*
X26500D02*
D03*
D21*
X11772Y-52000D02*
D03*
X8228D02*
D03*
X11772Y-46500D02*
D03*
X8228D02*
D03*
X11772Y-41000D02*
D03*
X8228D02*
D03*
D22*
X71260Y-50421D02*
D03*
X75000D02*
D03*
X78740D02*
D03*
Y-40579D02*
D03*
X75000D02*
D03*
X71260D02*
D03*
D23*
X55138Y-42654D02*
D03*
Y-49347D02*
D03*
X34862Y-42654D02*
D03*
Y-49347D02*
D03*
D24*
X83500Y-36827D02*
D03*
Y-40173D02*
D03*
X33000Y-32827D02*
D03*
Y-36173D02*
D03*
D25*
X73000Y-82472D02*
D03*
Y-66528D02*
D03*
X85500Y-82472D02*
D03*
Y-66528D02*
D03*
D26*
X82425Y-50500D02*
D03*
X85575D02*
D03*
D41*
X55138Y-49347D02*
G03*
X55509Y-49500I371J371D01*
G01*
X75000Y-40672D02*
G03*
X77000Y-45500I6828J0D01*
G01*
X78740Y-49701D02*
G03*
X77000Y-45500I-5941J0D01*
G01*
X21500Y-12823D02*
Y-6500D01*
X26500Y-12823D02*
Y-6500D01*
X55509Y-49500D02*
X59500D01*
X35681Y-17575D02*
X37500D01*
X67000Y-26575D02*
X68819D01*
X50673Y-33827D02*
Y-31500D01*
X5500Y-41000D02*
X8228D01*
X5500Y-52000D02*
X8228D01*
X19173D02*
X22000D01*
X71000Y-50421D02*
Y-47000D01*
Y-50421D02*
X71260D01*
X85575Y-50500D02*
X88000D01*
X87000Y-46000D02*
Y-43575D01*
X75000Y-40672D02*
Y-40579D01*
X78740Y-50421D02*
Y-49701D01*
Y-50421D02*
X82425D01*
Y-50500D02*
Y-50421D01*
D42*
X54000Y-18500D02*
D03*
D43*
X85000Y-12500D02*
D03*
X12500Y-80500D02*
D03*
D44*
X31657Y-74315D02*
D03*
X51342D02*
D03*
D45*
X63153Y-113685D02*
D03*
X19847D02*
D03*
D46*
X99000Y-47200D02*
D03*
Y-59000D02*
D03*
Y-70800D02*
D03*
X85500Y-90500D02*
D03*
X97300D02*
D03*
X109100D02*
D03*
X120900D02*
D03*
D47*
X116000Y-59000D02*
D03*
X93950Y-107500D02*
D03*
X112450D02*
D03*
D48*
X21500Y-6500D02*
D03*
X26500D02*
D03*
X59500Y-49500D02*
D03*
X33000Y-28000D02*
D03*
X36500Y-32500D02*
D03*
X67500Y-21000D02*
D03*
X66000Y-19000D02*
D03*
Y-16500D02*
D03*
Y-13579D02*
D03*
X35681Y-17575D02*
D03*
X68819Y-26575D02*
D03*
X42500Y-10000D02*
D03*
X50673Y-33827D02*
D03*
X38000Y-12500D02*
D03*
X22000Y-41000D02*
D03*
X5500D02*
D03*
Y-46500D02*
D03*
Y-52000D02*
D03*
X68500Y-40500D02*
D03*
X22000Y-52000D02*
D03*
X71000Y-47000D02*
D03*
X88000Y-50500D02*
D03*
X87000Y-46000D02*
D03*
D49*
X49669Y-22831D02*
D03*
Y-18500D02*
D03*
Y-14169D02*
D03*
X54000Y-22831D02*
D03*
Y-18500D02*
D03*
Y-14169D02*
D03*
X58331Y-22831D02*
D03*
Y-18500D02*
D03*
Y-14169D02*
D03*
D50*
X64500Y-76000D02*
D03*
X57500Y-83000D02*
D03*
X61000D02*
D03*
Y-79500D02*
D03*
X64500D02*
D03*
Y-83000D02*
D03*
X85000Y-71500D02*
D03*
X76500D02*
D03*
X90500Y-40500D02*
D03*
M02*
