M48
;Layer_Color=9474304
;FILE_FORMAT=2:5
INCH,LZ
;TYPE=PLATED
T1F00S00C0.00787
T2F00S00C0.01181
T3F00S00C0.03937
T4F00S00C0.04000
T5F00S00C0.06693
T6F00S00C0.11800
T7F00S00C0.12205
%
T01
X00055Y-0052
Y-00465
Y-0041
X0022
Y-0052
X00365Y-00325
X0033Y-0028
X0035681Y-0017575
X0038Y-00125
X00425Y-001
X0049669Y-0014169
Y-00185
Y-0022831
X0054
Y-00185
Y-0014169
X0058331
Y-00185
Y-0022831
X00675Y-0021
X0066Y-0019
Y-00165
Y-0013579
X0068819Y-0026575
X00685Y-00405
X0071Y-0047
X00595Y-00495
X0050673Y-0033827
X0087Y-0046
X0088Y-00505
X00265Y-00065
X00215
T02
X00575Y-0083
X0061
Y-00795
X00645
Y-0076
Y-0083
X00765Y-00715
X0085
X00905Y-00405
T03
X0019847Y-0113685
X0063153
T04
X00855Y-00905
X00973
X01091
X01209
X0099Y-00708
Y-0059
Y-00472
T05
X0031657Y-0074315
X0051342
T06
X009395Y-01075
X011245
X0116Y-0059
T07
X00125Y-00805
X0085Y-00125
M30
