G04*
G04 #@! TF.GenerationSoftware,Altium Limited,Altium Designer,21.9.2 (33)*
G04*
G04 Layer_Color=32896*
%FSLAX25Y25*%
%MOIN*%
G70*
G04*
G04 #@! TF.SameCoordinates,1223ADA4-3529-4512-854F-09A9CE28B868*
G04*
G04*
G04 #@! TF.FilePolarity,Positive*
G04*
G01*
G75*
%ADD13C,0.00800*%
%ADD51C,0.01200*%
G36*
X46639Y-36351D02*
X46589D01*
Y-36401D01*
X46539D01*
Y-36501D01*
X46489D01*
Y-36600D01*
X46439D01*
Y-36650D01*
X46390D01*
Y-36750D01*
X46340D01*
Y-36850D01*
X46290D01*
Y-36950D01*
X46240D01*
Y-36999D01*
X46190D01*
Y-37099D01*
X46140D01*
Y-37199D01*
X46090D01*
Y-37299D01*
X46041D01*
Y-37348D01*
X45991D01*
Y-37448D01*
X45941D01*
Y-37548D01*
X45891D01*
Y-37598D01*
X45841D01*
Y-37697D01*
X45791D01*
Y-37797D01*
X45741D01*
Y-37897D01*
X45691D01*
Y-37947D01*
X45642D01*
Y-38047D01*
X45592D01*
Y-38146D01*
X45542D01*
Y-38246D01*
X45492D01*
Y-38296D01*
X45442D01*
Y-38396D01*
X45392D01*
Y-38495D01*
X45342D01*
Y-38595D01*
X45293D01*
Y-38645D01*
X45243D01*
Y-38745D01*
X45193D01*
Y-38844D01*
X45143D01*
Y-38894D01*
X45093D01*
Y-38994D01*
X45043D01*
Y-39094D01*
X44993D01*
Y-39193D01*
X44943D01*
Y-39243D01*
X44894D01*
Y-39343D01*
X44844D01*
Y-39443D01*
X44794D01*
Y-39543D01*
X44744D01*
Y-39592D01*
X44694D01*
Y-39692D01*
X44644D01*
Y-39792D01*
X44594D01*
Y-39892D01*
X44545D01*
Y-39941D01*
X44495D01*
Y-40041D01*
X44445D01*
Y-40141D01*
X44395D01*
Y-40191D01*
X44345D01*
Y-40291D01*
X44295D01*
Y-40390D01*
X44245D01*
Y-40490D01*
X44196D01*
Y-40540D01*
X44146D01*
Y-40640D01*
X44096D01*
Y-40739D01*
X44046D01*
Y-40839D01*
X43996D01*
Y-40889D01*
X43946D01*
Y-40989D01*
X43896D01*
Y-41088D01*
X43846D01*
Y-41138D01*
X43797D01*
Y-41238D01*
X43747D01*
Y-41338D01*
X43697D01*
Y-41438D01*
X43647D01*
Y-41487D01*
X43597D01*
Y-41587D01*
X43547D01*
Y-41687D01*
X43497D01*
Y-41787D01*
X43448D01*
Y-41836D01*
X43398D01*
Y-41936D01*
X43348D01*
Y-42036D01*
X43298D01*
Y-42136D01*
X43248D01*
Y-42186D01*
X43198D01*
Y-42285D01*
X43148D01*
Y-42385D01*
X43098D01*
Y-42435D01*
X43049D01*
Y-42535D01*
X42999D01*
Y-42634D01*
X42949D01*
Y-42734D01*
X42899D01*
Y-42784D01*
X42849D01*
Y-42884D01*
X42799D01*
Y-42983D01*
X42749D01*
Y-43083D01*
X42700D01*
Y-43133D01*
X42650D01*
Y-43233D01*
X42600D01*
Y-43332D01*
X42550D01*
Y-43432D01*
X42500D01*
Y-43482D01*
X42450D01*
Y-43582D01*
X42400D01*
Y-43681D01*
X42350D01*
Y-43731D01*
X42301D01*
Y-43831D01*
X42251D01*
Y-43931D01*
X42201D01*
Y-44031D01*
X42151D01*
Y-44080D01*
X42101D01*
Y-44180D01*
X42051D01*
Y-44280D01*
X42001D01*
Y-44380D01*
X41952D01*
Y-44429D01*
X41902D01*
Y-44529D01*
X41852D01*
Y-44629D01*
X41802D01*
Y-44729D01*
X41752D01*
Y-44779D01*
X41702D01*
Y-44878D01*
X41652D01*
Y-44978D01*
X41602D01*
Y-45028D01*
X41552D01*
Y-45128D01*
X41503D01*
Y-45227D01*
X41453D01*
Y-45327D01*
X41403D01*
Y-45377D01*
X41353D01*
Y-45477D01*
X41303D01*
Y-45577D01*
X41253D01*
Y-45676D01*
X41203D01*
Y-45726D01*
X41154D01*
Y-45826D01*
X41104D01*
Y-45926D01*
X41054D01*
Y-45975D01*
X41004D01*
Y-46075D01*
X40954D01*
Y-46175D01*
X40904D01*
Y-46275D01*
X40854D01*
Y-46325D01*
X40804D01*
Y-46424D01*
X40755D01*
Y-46524D01*
X40705D01*
Y-46624D01*
X40655D01*
Y-46674D01*
X40605D01*
Y-46773D01*
X40555D01*
Y-46873D01*
X40505D01*
Y-46973D01*
X40455D01*
Y-47023D01*
X40406D01*
Y-47122D01*
X40356D01*
Y-47222D01*
X40306D01*
Y-47272D01*
X40256D01*
Y-47372D01*
X40206D01*
Y-47471D01*
X40156D01*
Y-47571D01*
X40106D01*
Y-47621D01*
X40056D01*
Y-47721D01*
X40007D01*
Y-47820D01*
X39957D01*
Y-47920D01*
X39907D01*
Y-47970D01*
X39857D01*
Y-48070D01*
X39807D01*
Y-48169D01*
X39757D01*
Y-48269D01*
X39707D01*
Y-48319D01*
X39658D01*
Y-48419D01*
X39608D01*
Y-48519D01*
X39558D01*
Y-48568D01*
X39508D01*
Y-48668D01*
X39458D01*
Y-48768D01*
X39408D01*
Y-48868D01*
X39358D01*
Y-48918D01*
X39309D01*
Y-49017D01*
X39259D01*
Y-49117D01*
X39209D01*
Y-49217D01*
X39159D01*
Y-49267D01*
X39109D01*
Y-49366D01*
X39059D01*
Y-49466D01*
X39009D01*
Y-49416D01*
X38959D01*
Y-49366D01*
X38910D01*
Y-49267D01*
X38860D01*
Y-49167D01*
X38810D01*
Y-49067D01*
X38760D01*
Y-49017D01*
X38710D01*
Y-48918D01*
X38660D01*
Y-48818D01*
X38610D01*
Y-48718D01*
X38561D01*
Y-48668D01*
X38511D01*
Y-48568D01*
X38461D01*
Y-48469D01*
X38411D01*
Y-48419D01*
X38361D01*
Y-48319D01*
X38311D01*
Y-48219D01*
X38261D01*
Y-48120D01*
X38211D01*
Y-48070D01*
X38162D01*
Y-47970D01*
X38112D01*
Y-47870D01*
X38062D01*
Y-47771D01*
X38012D01*
Y-47721D01*
X37962D01*
Y-47621D01*
X37912D01*
Y-47521D01*
X37862D01*
Y-47422D01*
X37813D01*
Y-47372D01*
X37763D01*
Y-47272D01*
X37713D01*
Y-47172D01*
X37663D01*
Y-47122D01*
X37613D01*
Y-47023D01*
X37563D01*
Y-46923D01*
X37513D01*
Y-46823D01*
X37463D01*
Y-46773D01*
X37414D01*
Y-46674D01*
X37364D01*
Y-46574D01*
X37314D01*
Y-46474D01*
X37264D01*
Y-46424D01*
X37214D01*
Y-46325D01*
X37164D01*
Y-46225D01*
X37114D01*
Y-46125D01*
X37064D01*
Y-46075D01*
X37015D01*
Y-45975D01*
X36965D01*
Y-45876D01*
X36915D01*
Y-45826D01*
X36865D01*
Y-45726D01*
X36815D01*
Y-45626D01*
X36765D01*
Y-45527D01*
X36715D01*
Y-45477D01*
X36666D01*
Y-45377D01*
X36616D01*
Y-45277D01*
X36566D01*
Y-45178D01*
X36516D01*
Y-45128D01*
X36466D01*
Y-45028D01*
X36416D01*
Y-44928D01*
X36366D01*
Y-44878D01*
X36316D01*
Y-44779D01*
X36267D01*
Y-44679D01*
X36217D01*
Y-44579D01*
X36167D01*
Y-44529D01*
X36117D01*
Y-44429D01*
X36067D01*
Y-44330D01*
X36017D01*
Y-44230D01*
X35967D01*
Y-44180D01*
X35918D01*
Y-44080D01*
X35868D01*
Y-43981D01*
X35818D01*
Y-43881D01*
X35768D01*
Y-43831D01*
X35718D01*
Y-43731D01*
X35668D01*
Y-43632D01*
X35618D01*
Y-43582D01*
X35568D01*
Y-43482D01*
X35519D01*
Y-43382D01*
X35469D01*
Y-43283D01*
X35419D01*
Y-43233D01*
X35369D01*
Y-43133D01*
X35319D01*
Y-43033D01*
X35269D01*
Y-42933D01*
X35219D01*
Y-42884D01*
X35170D01*
Y-42834D01*
X35120D01*
Y-42884D01*
X35070D01*
Y-42983D01*
X35020D01*
Y-43083D01*
X34970D01*
Y-43133D01*
X34920D01*
Y-43233D01*
X34870D01*
Y-43332D01*
X34821D01*
Y-43382D01*
X34771D01*
Y-43482D01*
X34721D01*
Y-43582D01*
X34671D01*
Y-43681D01*
X34621D01*
Y-43731D01*
X34571D01*
Y-43831D01*
X34521D01*
Y-43931D01*
X34471D01*
Y-44031D01*
X34422D01*
Y-44080D01*
X34372D01*
Y-44180D01*
X34322D01*
Y-44280D01*
X34272D01*
Y-44380D01*
X34222D01*
Y-44429D01*
X34172D01*
Y-44529D01*
X34122D01*
Y-44629D01*
X34073D01*
Y-44679D01*
X34023D01*
Y-44779D01*
X33973D01*
Y-44878D01*
X33923D01*
Y-44978D01*
X33873D01*
Y-45028D01*
X33823D01*
Y-45128D01*
X33773D01*
Y-45227D01*
X33723D01*
Y-45327D01*
X33674D01*
Y-45377D01*
X33624D01*
Y-45477D01*
X33574D01*
Y-45577D01*
X33524D01*
Y-45676D01*
X33474D01*
Y-45726D01*
X33424D01*
Y-45826D01*
X33374D01*
Y-45926D01*
X33325D01*
Y-45975D01*
X33275D01*
Y-46075D01*
X33225D01*
Y-46175D01*
X33175D01*
Y-46275D01*
X33125D01*
Y-46325D01*
X33075D01*
Y-46424D01*
X33025D01*
Y-46524D01*
X32975D01*
Y-46624D01*
X32926D01*
Y-46674D01*
X32876D01*
Y-46773D01*
X32826D01*
Y-46873D01*
X32776D01*
Y-46973D01*
X32726D01*
Y-47023D01*
X32676D01*
Y-47122D01*
X32626D01*
Y-47222D01*
X32577D01*
Y-47272D01*
X32527D01*
Y-47372D01*
X32477D01*
Y-47471D01*
X32427D01*
Y-47571D01*
X32377D01*
Y-47621D01*
X32327D01*
Y-47721D01*
X32277D01*
Y-47820D01*
X32227D01*
Y-47920D01*
X32177D01*
Y-47970D01*
X32128D01*
Y-48070D01*
X32078D01*
Y-48169D01*
X32028D01*
Y-48219D01*
X31978D01*
Y-48319D01*
X31928D01*
Y-48419D01*
X31878D01*
Y-48519D01*
X31828D01*
Y-48568D01*
X31779D01*
Y-48668D01*
X31729D01*
Y-48768D01*
X31679D01*
Y-48868D01*
X31629D01*
Y-48918D01*
X31579D01*
Y-49017D01*
X31529D01*
Y-49117D01*
X31479D01*
Y-49217D01*
X31429D01*
Y-49267D01*
X31380D01*
Y-49366D01*
X31330D01*
Y-49466D01*
X31280D01*
Y-49516D01*
X31230D01*
Y-49616D01*
X31180D01*
Y-49715D01*
X31130D01*
Y-49815D01*
X31080D01*
Y-49865D01*
X31031D01*
Y-49965D01*
X30981D01*
Y-50064D01*
X30931D01*
Y-50164D01*
X30881D01*
Y-50214D01*
X30831D01*
Y-50314D01*
X30781D01*
Y-50414D01*
X30731D01*
Y-50513D01*
X30681D01*
Y-50563D01*
X30632D01*
Y-50663D01*
X30582D01*
Y-50763D01*
X30532D01*
Y-50813D01*
X30482D01*
Y-50912D01*
X30432D01*
Y-51012D01*
X30382D01*
Y-51112D01*
X30332D01*
Y-51162D01*
X30283D01*
Y-51261D01*
X30233D01*
Y-51361D01*
X30183D01*
Y-51461D01*
X30133D01*
Y-51511D01*
X30083D01*
Y-51610D01*
X30033D01*
Y-51710D01*
X29983D01*
Y-51760D01*
X29934D01*
Y-51860D01*
X29884D01*
Y-51960D01*
X29834D01*
Y-52059D01*
X29784D01*
Y-52109D01*
X29734D01*
Y-52209D01*
X29684D01*
Y-52308D01*
X29634D01*
Y-52408D01*
X29584D01*
Y-52458D01*
X29535D01*
Y-52558D01*
X29485D01*
Y-52658D01*
X29435D01*
Y-52757D01*
X29385D01*
Y-52807D01*
X29335D01*
Y-52907D01*
X29285D01*
Y-53007D01*
X29235D01*
Y-53057D01*
X29186D01*
Y-53156D01*
X29136D01*
Y-53256D01*
X29086D01*
Y-53356D01*
X29036D01*
Y-53406D01*
X28986D01*
Y-53505D01*
X28936D01*
Y-53605D01*
X28886D01*
Y-53705D01*
X28836D01*
Y-53755D01*
X28787D01*
Y-53854D01*
X28737D01*
Y-53954D01*
X28687D01*
Y-54054D01*
X28637D01*
Y-54104D01*
X28587D01*
Y-54203D01*
X28537D01*
Y-54303D01*
X28487D01*
Y-54353D01*
X28438D01*
Y-54453D01*
X28388D01*
Y-54553D01*
X28338D01*
Y-54652D01*
X28288D01*
Y-54702D01*
X28238D01*
Y-54802D01*
X28188D01*
Y-54902D01*
X28138D01*
Y-55001D01*
X28088D01*
Y-55051D01*
X28039D01*
Y-55151D01*
X27989D01*
Y-55251D01*
X27939D01*
Y-55350D01*
X27889D01*
Y-55400D01*
X27839D01*
Y-55500D01*
X27789D01*
Y-55600D01*
X27739D01*
Y-55650D01*
X27689D01*
Y-55749D01*
X27640D01*
Y-55849D01*
X27590D01*
Y-55949D01*
X27540D01*
Y-55999D01*
X27490D01*
Y-56098D01*
X27440D01*
Y-56198D01*
X27390D01*
Y-56298D01*
X27340D01*
Y-56348D01*
X27291D01*
Y-56447D01*
X27241D01*
Y-56547D01*
X27191D01*
Y-56597D01*
X27141D01*
Y-56697D01*
X27091D01*
Y-56797D01*
X27041D01*
Y-56896D01*
X26991D01*
Y-56946D01*
X26941D01*
Y-57046D01*
X26892D01*
Y-57146D01*
X26842D01*
Y-57245D01*
X26792D01*
Y-57295D01*
X26742D01*
Y-57395D01*
X26692D01*
Y-57495D01*
X26642D01*
Y-57594D01*
X26592D01*
Y-57644D01*
X26543D01*
Y-57744D01*
X26493D01*
Y-57844D01*
X26443D01*
Y-57894D01*
X26393D01*
Y-57993D01*
X26343D01*
Y-58093D01*
X26293D01*
Y-58193D01*
X26243D01*
Y-58243D01*
X26193D01*
Y-58342D01*
X26144D01*
Y-58442D01*
X26094D01*
Y-58542D01*
X26044D01*
Y-58592D01*
X25994D01*
Y-58692D01*
X25944D01*
Y-58791D01*
X25894D01*
Y-58891D01*
X25844D01*
Y-58941D01*
X25795D01*
Y-59041D01*
X25745D01*
Y-59140D01*
X25695D01*
Y-59190D01*
X25645D01*
Y-59290D01*
X25595D01*
Y-59390D01*
X25545D01*
Y-59489D01*
X25495D01*
Y-59539D01*
X25446D01*
Y-59639D01*
X25396D01*
Y-59739D01*
X25346D01*
Y-59838D01*
X25296D01*
Y-59888D01*
X25246D01*
Y-59988D01*
X25196D01*
Y-60088D01*
X25146D01*
Y-60188D01*
X25096D01*
Y-60237D01*
X25047D01*
Y-60337D01*
X24997D01*
Y-60437D01*
X24947D01*
Y-60487D01*
X24897D01*
Y-60586D01*
X24847D01*
Y-60686D01*
X24797D01*
Y-60786D01*
X24747D01*
Y-60836D01*
X24698D01*
Y-60935D01*
X24648D01*
Y-61035D01*
X24598D01*
Y-61135D01*
X24548D01*
Y-61185D01*
X24498D01*
Y-61285D01*
X24448D01*
Y-61384D01*
X24398D01*
Y-61434D01*
X24348D01*
Y-61534D01*
X24298D01*
Y-61634D01*
X24249D01*
Y-61733D01*
X24199D01*
Y-61783D01*
X24149D01*
Y-61883D01*
X24099D01*
Y-61983D01*
X24049D01*
Y-62082D01*
X23999D01*
Y-62132D01*
X23949D01*
Y-62232D01*
X23900D01*
Y-62332D01*
X23850D01*
Y-62432D01*
X23800D01*
Y-62481D01*
X23750D01*
Y-62581D01*
X23700D01*
Y-62681D01*
X23650D01*
Y-62731D01*
X23600D01*
Y-62831D01*
X23550D01*
Y-62930D01*
X23501D01*
Y-63030D01*
X23451D01*
Y-63080D01*
X23401D01*
Y-63179D01*
X23351D01*
Y-63279D01*
X23301D01*
Y-63379D01*
X23251D01*
Y-63429D01*
X23201D01*
Y-63529D01*
X23152D01*
Y-63628D01*
X23102D01*
Y-63728D01*
X23052D01*
Y-63778D01*
X23002D01*
Y-63878D01*
X22952D01*
Y-63977D01*
X22902D01*
Y-64027D01*
X22852D01*
Y-64127D01*
X22803D01*
Y-64227D01*
X22753D01*
Y-64327D01*
X22703D01*
Y-64376D01*
X22653D01*
Y-64476D01*
X22603D01*
Y-64576D01*
X22553D01*
Y-64675D01*
X22503D01*
Y-64725D01*
X22454D01*
Y-64825D01*
X22404D01*
Y-64925D01*
X22354D01*
Y-65025D01*
X22304D01*
Y-65074D01*
X22254D01*
Y-65174D01*
X22204D01*
Y-65274D01*
X48085D01*
Y-65174D01*
X48035D01*
Y-65074D01*
X47985D01*
Y-64975D01*
X47936D01*
Y-64875D01*
X47886D01*
Y-64825D01*
X47836D01*
Y-64725D01*
X47786D01*
Y-64626D01*
X47736D01*
Y-64526D01*
X47686D01*
Y-64476D01*
X47636D01*
Y-64376D01*
X47586D01*
Y-64277D01*
X47537D01*
Y-64177D01*
X47487D01*
Y-64127D01*
X47437D01*
Y-64027D01*
X47387D01*
Y-63928D01*
X47337D01*
Y-63878D01*
X47287D01*
Y-63778D01*
X47237D01*
Y-63678D01*
X47188D01*
Y-63578D01*
X47138D01*
Y-63529D01*
X47088D01*
Y-63429D01*
X47038D01*
Y-63329D01*
X46988D01*
Y-63229D01*
X46938D01*
Y-63179D01*
X46888D01*
Y-63080D01*
X46838D01*
Y-62980D01*
X46789D01*
Y-62930D01*
X46739D01*
Y-62831D01*
X46689D01*
Y-62731D01*
X46639D01*
Y-62631D01*
X46589D01*
Y-62581D01*
X46539D01*
Y-62481D01*
X46489D01*
Y-62382D01*
X46439D01*
Y-62282D01*
X46390D01*
Y-62232D01*
X46340D01*
Y-62132D01*
X46290D01*
Y-62033D01*
X46240D01*
Y-61933D01*
X46190D01*
Y-61883D01*
X46140D01*
Y-61783D01*
X46090D01*
Y-61683D01*
X46041D01*
Y-61634D01*
X45991D01*
Y-61534D01*
X45941D01*
Y-61434D01*
X45891D01*
Y-61335D01*
X45841D01*
Y-61285D01*
X45791D01*
Y-61185D01*
X45741D01*
Y-61085D01*
X45691D01*
Y-60985D01*
X45642D01*
Y-60935D01*
X45592D01*
Y-60836D01*
X45542D01*
Y-60736D01*
X45492D01*
Y-60636D01*
X45442D01*
Y-60586D01*
X45392D01*
Y-60487D01*
X45342D01*
Y-60387D01*
X45293D01*
Y-60337D01*
X45243D01*
Y-60237D01*
X45193D01*
Y-60138D01*
X45143D01*
Y-60038D01*
X45093D01*
Y-59988D01*
X45043D01*
Y-59888D01*
X44993D01*
Y-59789D01*
X44943D01*
Y-59689D01*
X44894D01*
Y-59639D01*
X44844D01*
Y-59539D01*
X44794D01*
Y-59439D01*
X44744D01*
Y-59390D01*
X44694D01*
Y-59290D01*
X44644D01*
Y-59190D01*
X44594D01*
Y-59090D01*
X44545D01*
Y-59041D01*
X44495D01*
Y-58941D01*
X44445D01*
Y-58841D01*
X44395D01*
Y-58741D01*
X59604D01*
Y-58642D01*
X59554D01*
Y-58542D01*
X59505D01*
Y-58442D01*
X59455D01*
Y-58392D01*
X59405D01*
Y-58293D01*
X59355D01*
Y-58193D01*
X59305D01*
Y-58093D01*
X59255D01*
Y-58043D01*
X59206D01*
Y-57943D01*
X59156D01*
Y-57844D01*
X59106D01*
Y-57744D01*
X59056D01*
Y-57694D01*
X59006D01*
Y-57594D01*
X58956D01*
Y-57495D01*
X58906D01*
Y-57445D01*
X58856D01*
Y-57345D01*
X58807D01*
Y-57245D01*
X58757D01*
Y-57146D01*
X58707D01*
Y-57096D01*
X58657D01*
Y-56996D01*
X58607D01*
Y-56896D01*
X58557D01*
Y-56797D01*
X58507D01*
Y-56747D01*
X58457D01*
Y-56647D01*
X58408D01*
Y-56547D01*
X58358D01*
Y-56447D01*
X58308D01*
Y-56398D01*
X58258D01*
Y-56298D01*
X58208D01*
Y-56198D01*
X58158D01*
Y-56148D01*
X58108D01*
Y-56049D01*
X58059D01*
Y-55949D01*
X58009D01*
Y-55849D01*
X57959D01*
Y-55799D01*
X57909D01*
Y-55699D01*
X57859D01*
Y-55600D01*
X57809D01*
Y-55500D01*
X57759D01*
Y-55450D01*
X57709D01*
Y-55350D01*
X57660D01*
Y-55251D01*
X57610D01*
Y-55201D01*
X57560D01*
Y-55101D01*
X57510D01*
Y-55001D01*
X57460D01*
Y-54902D01*
X57410D01*
Y-54852D01*
X57360D01*
Y-54752D01*
X57310D01*
Y-54652D01*
X57261D01*
Y-54553D01*
X57211D01*
Y-54503D01*
X57161D01*
Y-54403D01*
X57111D01*
Y-54303D01*
X57061D01*
Y-54203D01*
X57011D01*
Y-54154D01*
X56961D01*
Y-54054D01*
X56912D01*
Y-53954D01*
X56862D01*
Y-53904D01*
X56812D01*
Y-53804D01*
X56762D01*
Y-53705D01*
X56712D01*
Y-53605D01*
X56662D01*
Y-53555D01*
X56612D01*
Y-53456D01*
X56563D01*
Y-53356D01*
X56513D01*
Y-53256D01*
X56463D01*
Y-53206D01*
X56413D01*
Y-53106D01*
X56363D01*
Y-53007D01*
X56313D01*
Y-52907D01*
X56263D01*
Y-52857D01*
X56213D01*
Y-52757D01*
X56164D01*
Y-52658D01*
X56114D01*
Y-52608D01*
X56064D01*
Y-52508D01*
X56014D01*
Y-52408D01*
X55964D01*
Y-52308D01*
X55914D01*
Y-52259D01*
X55864D01*
Y-52159D01*
X55814D01*
Y-52059D01*
X55765D01*
Y-51960D01*
X55715D01*
Y-51910D01*
X55665D01*
Y-51810D01*
X55615D01*
Y-51710D01*
X55565D01*
Y-51610D01*
X55515D01*
Y-51560D01*
X55465D01*
Y-51461D01*
X55416D01*
Y-51361D01*
X55366D01*
Y-51311D01*
X55316D01*
Y-51211D01*
X55266D01*
Y-51112D01*
X55216D01*
Y-51012D01*
X55166D01*
Y-50962D01*
X55116D01*
Y-50862D01*
X55067D01*
Y-50763D01*
X55017D01*
Y-50663D01*
X54967D01*
Y-50613D01*
X54917D01*
Y-50513D01*
X54867D01*
Y-50414D01*
X54817D01*
Y-50364D01*
X54767D01*
Y-50264D01*
X54717D01*
Y-50164D01*
X54668D01*
Y-50064D01*
X54618D01*
Y-50015D01*
X54568D01*
Y-49915D01*
X54518D01*
Y-49815D01*
X54468D01*
Y-49715D01*
X54418D01*
Y-49666D01*
X54368D01*
Y-49566D01*
X54318D01*
Y-49466D01*
X54269D01*
Y-49366D01*
X54219D01*
Y-49316D01*
X54169D01*
Y-49217D01*
X54119D01*
Y-49117D01*
X54069D01*
Y-49067D01*
X54019D01*
Y-48967D01*
X53969D01*
Y-48868D01*
X53920D01*
Y-48768D01*
X53870D01*
Y-48718D01*
X53820D01*
Y-48618D01*
X53770D01*
Y-48519D01*
X53720D01*
Y-48419D01*
X53670D01*
Y-48369D01*
X53620D01*
Y-48269D01*
X53570D01*
Y-48169D01*
X53521D01*
Y-48070D01*
X53471D01*
Y-48020D01*
X53421D01*
Y-47920D01*
X53371D01*
Y-47820D01*
X53321D01*
Y-47771D01*
X53271D01*
Y-47671D01*
X53221D01*
Y-47571D01*
X53172D01*
Y-47471D01*
X53122D01*
Y-47422D01*
X53072D01*
Y-47322D01*
X53022D01*
Y-47222D01*
X52972D01*
Y-47122D01*
X52922D01*
Y-47072D01*
X52872D01*
Y-46973D01*
X52823D01*
Y-46873D01*
X52773D01*
Y-46773D01*
X52723D01*
Y-46723D01*
X52673D01*
Y-46624D01*
X52623D01*
Y-46524D01*
X52573D01*
Y-46474D01*
X52523D01*
Y-46374D01*
X52473D01*
Y-46275D01*
X52424D01*
Y-46175D01*
X52374D01*
Y-46125D01*
X52324D01*
Y-46025D01*
X52274D01*
Y-45926D01*
X52224D01*
Y-45826D01*
X52174D01*
Y-45776D01*
X52124D01*
Y-45676D01*
X52074D01*
Y-45577D01*
X52025D01*
Y-45527D01*
X51975D01*
Y-45427D01*
X51925D01*
Y-45327D01*
X51875D01*
Y-45227D01*
X51825D01*
Y-45178D01*
X51775D01*
Y-45078D01*
X51725D01*
Y-44978D01*
X51675D01*
Y-44878D01*
X51626D01*
Y-44829D01*
X51576D01*
Y-44729D01*
X51526D01*
Y-44629D01*
X51476D01*
Y-44529D01*
X51426D01*
Y-44479D01*
X51376D01*
Y-44380D01*
X51327D01*
Y-44280D01*
X51277D01*
Y-44230D01*
X51227D01*
Y-44130D01*
X51177D01*
Y-44031D01*
X51127D01*
Y-43931D01*
X51077D01*
Y-43881D01*
X51027D01*
Y-43781D01*
X50977D01*
Y-43681D01*
X50928D01*
Y-43582D01*
X50878D01*
Y-43532D01*
X50828D01*
Y-43432D01*
X50778D01*
Y-43332D01*
X50728D01*
Y-43233D01*
X50678D01*
Y-43183D01*
X50628D01*
Y-43083D01*
X50578D01*
Y-42983D01*
X50529D01*
Y-42933D01*
X50479D01*
Y-42834D01*
X50429D01*
Y-42734D01*
X50379D01*
Y-42634D01*
X50329D01*
Y-42584D01*
X50279D01*
Y-42485D01*
X50229D01*
Y-42385D01*
X50179D01*
Y-42285D01*
X50130D01*
Y-42235D01*
X50080D01*
Y-42136D01*
X50030D01*
Y-42036D01*
X49980D01*
Y-41986D01*
X49930D01*
Y-41886D01*
X49880D01*
Y-41787D01*
X49830D01*
Y-41687D01*
X49781D01*
Y-41637D01*
X49731D01*
Y-41537D01*
X49681D01*
Y-41438D01*
X49631D01*
Y-41338D01*
X49581D01*
Y-41288D01*
X49531D01*
Y-41188D01*
X49481D01*
Y-41088D01*
X49431D01*
Y-40989D01*
X49382D01*
Y-40939D01*
X49332D01*
Y-40839D01*
X49282D01*
Y-40739D01*
X49232D01*
Y-40690D01*
X49182D01*
Y-40590D01*
X49132D01*
Y-40490D01*
X49082D01*
Y-40390D01*
X49033D01*
Y-40340D01*
X48983D01*
Y-40241D01*
X48933D01*
Y-40141D01*
X48883D01*
Y-40041D01*
X48833D01*
Y-39991D01*
X48783D01*
Y-39892D01*
X48733D01*
Y-39792D01*
X48684D01*
Y-39692D01*
X48634D01*
Y-39642D01*
X48584D01*
Y-39543D01*
X48534D01*
Y-39443D01*
X48484D01*
Y-39393D01*
X48434D01*
Y-39293D01*
X48384D01*
Y-39193D01*
X48334D01*
Y-39094D01*
X48285D01*
Y-39044D01*
X48235D01*
Y-38944D01*
X48185D01*
Y-38844D01*
X48135D01*
Y-38745D01*
X48085D01*
Y-38695D01*
X48035D01*
Y-38595D01*
X47985D01*
Y-38495D01*
X47936D01*
Y-38396D01*
X47886D01*
Y-38346D01*
X47836D01*
Y-38246D01*
X47786D01*
Y-38146D01*
X47736D01*
Y-38096D01*
X47686D01*
Y-37997D01*
X47636D01*
Y-37897D01*
X47586D01*
Y-37797D01*
X47537D01*
Y-37747D01*
X47487D01*
Y-37648D01*
X47437D01*
Y-37548D01*
X47387D01*
Y-37448D01*
X47337D01*
Y-37398D01*
X47287D01*
Y-37299D01*
X47237D01*
Y-37199D01*
X47188D01*
Y-37149D01*
X47138D01*
Y-37049D01*
X47088D01*
Y-36950D01*
X47038D01*
Y-36850D01*
X46988D01*
Y-36800D01*
X46938D01*
Y-36700D01*
X46888D01*
Y-36600D01*
X46838D01*
Y-36501D01*
X46789D01*
Y-36451D01*
X46739D01*
Y-36351D01*
X46689D01*
Y-36301D01*
X46639D01*
Y-36351D01*
D02*
G37*
G36*
X64000Y-13074D02*
X54501D01*
X54272Y-13095D01*
X54064Y-13157D01*
X53877Y-13220D01*
X53731Y-13303D01*
X53606Y-13407D01*
X53502Y-13470D01*
X53439Y-13532D01*
X53418Y-13553D01*
X53273Y-13740D01*
X53148Y-13928D01*
X53064Y-14115D01*
X53023Y-14303D01*
X52981Y-14469D01*
X52960Y-14594D01*
Y-14678D01*
Y-14698D01*
X52981Y-14928D01*
X53023Y-15136D01*
X53106Y-15344D01*
X53189Y-15511D01*
X53273Y-15636D01*
X53356Y-15740D01*
X53398Y-15802D01*
X53418Y-15823D01*
X53606Y-15969D01*
X53793Y-16094D01*
X53981Y-16177D01*
X54147Y-16219D01*
X54314Y-16261D01*
X54439Y-16282D01*
X58168D01*
X58667Y-16302D01*
X59126Y-16344D01*
X59584Y-16407D01*
X59980Y-16490D01*
X60376Y-16615D01*
X60730Y-16719D01*
X61042Y-16844D01*
X61334Y-16969D01*
X61584Y-17115D01*
X61813Y-17240D01*
X62021Y-17344D01*
X62167Y-17448D01*
X62292Y-17552D01*
X62375Y-17615D01*
X62438Y-17656D01*
X62459Y-17677D01*
X62729Y-17948D01*
X62959Y-18240D01*
X63167Y-18552D01*
X63354Y-18885D01*
X63500Y-19219D01*
X63625Y-19573D01*
X63729Y-19906D01*
X63813Y-20219D01*
X63875Y-20531D01*
X63917Y-20822D01*
X63958Y-21072D01*
X63979Y-21302D01*
Y-21489D01*
X64000Y-21614D01*
Y-21718D01*
Y-21739D01*
Y-27301D01*
X60146D01*
Y-22697D01*
X48711Y-27780D01*
Y-23551D01*
X56814Y-20135D01*
X54981D01*
X54397Y-20114D01*
X53877Y-20052D01*
X53418Y-19989D01*
X53023Y-19885D01*
X52710Y-19802D01*
X52585Y-19760D01*
X52460Y-19739D01*
X52377Y-19698D01*
X52314Y-19677D01*
X52293Y-19656D01*
X52273D01*
X51877Y-19469D01*
X51523Y-19260D01*
X51210Y-19052D01*
X50940Y-18844D01*
X50731Y-18677D01*
X50586Y-18531D01*
X50481Y-18448D01*
X50460Y-18406D01*
X50210Y-18115D01*
X50002Y-17802D01*
X49836Y-17511D01*
X49690Y-17240D01*
X49586Y-17011D01*
X49502Y-16823D01*
X49461Y-16698D01*
X49440Y-16677D01*
Y-16657D01*
X49336Y-16282D01*
X49252Y-15927D01*
X49211Y-15594D01*
X49169Y-15282D01*
X49148Y-15032D01*
X49127Y-14823D01*
Y-14698D01*
Y-14678D01*
Y-14657D01*
X49148Y-14240D01*
X49169Y-13865D01*
X49231Y-13511D01*
X49294Y-13199D01*
X49356Y-12949D01*
X49398Y-12741D01*
X49440Y-12616D01*
X49461Y-12595D01*
Y-12574D01*
X49586Y-12220D01*
X49752Y-11886D01*
X49919Y-11595D01*
X50106Y-11324D01*
X50252Y-11137D01*
X50377Y-10970D01*
X50460Y-10887D01*
X50502Y-10845D01*
X50794Y-10574D01*
X51085Y-10345D01*
X51398Y-10137D01*
X51689Y-9970D01*
X51939Y-9845D01*
X52148Y-9741D01*
X52231Y-9699D01*
X52293Y-9679D01*
X52314Y-9658D01*
X52335D01*
X52773Y-9512D01*
X53210Y-9408D01*
X53648Y-9324D01*
X54064Y-9283D01*
X54439Y-9241D01*
X54585D01*
X54731Y-9220D01*
X64000D01*
Y-13074D01*
D02*
G37*
G36*
X46628D02*
X37129D01*
X36900Y-13095D01*
X36692Y-13157D01*
X36504Y-13220D01*
X36359Y-13303D01*
X36234Y-13407D01*
X36130Y-13470D01*
X36067Y-13532D01*
X36046Y-13553D01*
X35900Y-13740D01*
X35775Y-13928D01*
X35692Y-14115D01*
X35650Y-14303D01*
X35609Y-14469D01*
X35588Y-14594D01*
Y-14678D01*
Y-14698D01*
X35609Y-14928D01*
X35650Y-15136D01*
X35734Y-15344D01*
X35817Y-15511D01*
X35900Y-15636D01*
X35984Y-15740D01*
X36025Y-15802D01*
X36046Y-15823D01*
X36234Y-15969D01*
X36421Y-16094D01*
X36609Y-16177D01*
X36775Y-16219D01*
X36942Y-16261D01*
X37067Y-16282D01*
X40795D01*
X41295Y-16302D01*
X41754Y-16344D01*
X42212Y-16407D01*
X42608Y-16490D01*
X43003Y-16615D01*
X43358Y-16719D01*
X43670Y-16844D01*
X43962Y-16969D01*
X44212Y-17115D01*
X44441Y-17240D01*
X44649Y-17344D01*
X44795Y-17448D01*
X44920Y-17552D01*
X45003Y-17615D01*
X45066Y-17656D01*
X45086Y-17677D01*
X45357Y-17948D01*
X45586Y-18240D01*
X45795Y-18552D01*
X45982Y-18885D01*
X46128Y-19219D01*
X46253Y-19573D01*
X46357Y-19906D01*
X46440Y-20219D01*
X46503Y-20531D01*
X46545Y-20822D01*
X46586Y-21072D01*
X46607Y-21302D01*
Y-21489D01*
X46628Y-21614D01*
Y-21718D01*
Y-21739D01*
Y-27301D01*
X42774D01*
Y-21781D01*
X42753Y-21531D01*
X42712Y-21323D01*
X42649Y-21135D01*
X42566Y-20947D01*
X42483Y-20822D01*
X42420Y-20718D01*
X42379Y-20656D01*
X42358Y-20635D01*
X42191Y-20468D01*
X42024Y-20344D01*
X41837Y-20260D01*
X41670Y-20198D01*
X41545Y-20156D01*
X41420Y-20135D01*
X37608D01*
X37025Y-20114D01*
X36504Y-20052D01*
X36046Y-19989D01*
X35650Y-19885D01*
X35338Y-19802D01*
X35213Y-19760D01*
X35088Y-19739D01*
X35005Y-19698D01*
X34942Y-19677D01*
X34921Y-19656D01*
X34901D01*
X34505Y-19469D01*
X34151Y-19260D01*
X33838Y-19052D01*
X33567Y-18844D01*
X33359Y-18677D01*
X33213Y-18531D01*
X33109Y-18448D01*
X33088Y-18406D01*
X32838Y-18115D01*
X32630Y-17802D01*
X32463Y-17511D01*
X32318Y-17240D01*
X32213Y-17011D01*
X32130Y-16823D01*
X32088Y-16698D01*
X32068Y-16677D01*
Y-16657D01*
X31964Y-16282D01*
X31880Y-15927D01*
X31839Y-15594D01*
X31797Y-15282D01*
X31776Y-15032D01*
X31755Y-14823D01*
Y-14698D01*
Y-14678D01*
Y-14657D01*
X31776Y-14240D01*
X31797Y-13865D01*
X31859Y-13511D01*
X31922Y-13199D01*
X31984Y-12949D01*
X32026Y-12741D01*
X32068Y-12616D01*
X32088Y-12595D01*
Y-12574D01*
X32213Y-12220D01*
X32380Y-11886D01*
X32547Y-11595D01*
X32734Y-11324D01*
X32880Y-11137D01*
X33005Y-10970D01*
X33088Y-10887D01*
X33130Y-10845D01*
X33422Y-10574D01*
X33713Y-10345D01*
X34026Y-10137D01*
X34317Y-9970D01*
X34567Y-9845D01*
X34776Y-9741D01*
X34859Y-9699D01*
X34921Y-9679D01*
X34942Y-9658D01*
X34963D01*
X35400Y-9512D01*
X35838Y-9408D01*
X36275Y-9324D01*
X36692Y-9283D01*
X37067Y-9241D01*
X37213D01*
X37358Y-9220D01*
X46628D01*
Y-13074D01*
D02*
G37*
G36*
X29547Y-19427D02*
X29526Y-20094D01*
X29464Y-20698D01*
X29381Y-21260D01*
X29339Y-21510D01*
X29297Y-21739D01*
X29256Y-21947D01*
X29214Y-22135D01*
X29172Y-22301D01*
X29131Y-22447D01*
X29089Y-22551D01*
X29068Y-22635D01*
X29047Y-22676D01*
Y-22697D01*
X28839Y-23218D01*
X28589Y-23697D01*
X28339Y-24135D01*
X28089Y-24489D01*
X27860Y-24780D01*
X27693Y-25009D01*
X27631Y-25093D01*
X27568Y-25155D01*
X27547Y-25176D01*
X27527Y-25197D01*
X27131Y-25551D01*
X26714Y-25863D01*
X26298Y-26134D01*
X25902Y-26363D01*
X25548Y-26530D01*
X25402Y-26592D01*
X25277Y-26655D01*
X25173Y-26697D01*
X25090Y-26738D01*
X25048Y-26759D01*
X25027D01*
X24444Y-26947D01*
X23840Y-27071D01*
X23257Y-27176D01*
X22715Y-27238D01*
X22465Y-27259D01*
X22236Y-27280D01*
X22027D01*
X21861Y-27301D01*
X15945D01*
Y-23468D01*
X21611D01*
X21965Y-23447D01*
X22319Y-23426D01*
X22632Y-23364D01*
X22923Y-23301D01*
X23194Y-23218D01*
X23444Y-23135D01*
X23673Y-23031D01*
X23881Y-22926D01*
X24048Y-22843D01*
X24215Y-22739D01*
X24340Y-22656D01*
X24465Y-22572D01*
X24548Y-22510D01*
X24611Y-22447D01*
X24631Y-22426D01*
X24652Y-22406D01*
X24840Y-22197D01*
X24985Y-21968D01*
X25131Y-21739D01*
X25256Y-21489D01*
X25444Y-21010D01*
X25569Y-20531D01*
X25631Y-20094D01*
X25652Y-19927D01*
X25673Y-19760D01*
X25694Y-19635D01*
Y-19531D01*
Y-19469D01*
Y-19448D01*
Y-9220D01*
X29547D01*
Y-19427D01*
D02*
G37*
%LPC*%
G36*
X38959Y-49566D02*
X39059D01*
Y-49666D01*
X39109D01*
Y-49715D01*
X39159D01*
Y-49815D01*
X39209D01*
Y-49915D01*
X39259D01*
Y-50015D01*
X39309D01*
Y-50064D01*
X39358D01*
Y-50164D01*
X39408D01*
Y-50264D01*
X39458D01*
Y-50364D01*
X39508D01*
Y-50414D01*
X39558D01*
Y-50513D01*
X39608D01*
Y-50613D01*
X39658D01*
Y-50663D01*
X39707D01*
Y-50763D01*
X39757D01*
Y-50862D01*
X39807D01*
Y-50962D01*
X39857D01*
Y-51012D01*
X39907D01*
Y-51112D01*
X39957D01*
Y-51211D01*
X40007D01*
Y-51311D01*
X40056D01*
Y-51361D01*
X40106D01*
Y-51461D01*
X40156D01*
Y-51560D01*
X40206D01*
Y-51610D01*
X40256D01*
Y-51710D01*
X40306D01*
Y-51810D01*
X40356D01*
Y-51910D01*
X40406D01*
Y-51960D01*
X40455D01*
Y-52059D01*
X40505D01*
Y-52159D01*
X40555D01*
Y-52259D01*
X40605D01*
Y-52308D01*
X40655D01*
Y-52408D01*
X40705D01*
Y-52508D01*
X40755D01*
Y-52608D01*
X40804D01*
Y-52658D01*
X40854D01*
Y-52757D01*
X40904D01*
Y-52857D01*
X40954D01*
Y-52907D01*
X41004D01*
Y-53007D01*
X41054D01*
Y-53106D01*
X41104D01*
Y-53206D01*
X41154D01*
Y-53256D01*
X41203D01*
Y-53356D01*
X41253D01*
Y-53456D01*
X41303D01*
Y-53555D01*
X41353D01*
Y-53605D01*
X41403D01*
Y-53705D01*
X41453D01*
Y-53804D01*
X41503D01*
Y-53904D01*
X41552D01*
Y-53954D01*
X41602D01*
Y-54054D01*
X41652D01*
Y-54154D01*
X41702D01*
Y-54203D01*
X41752D01*
Y-54303D01*
X41802D01*
Y-54403D01*
X41852D01*
Y-54503D01*
X41902D01*
Y-54553D01*
X41952D01*
Y-54652D01*
X42001D01*
Y-54752D01*
X42051D01*
Y-54852D01*
X42101D01*
Y-54902D01*
X42151D01*
Y-55001D01*
X42201D01*
Y-55101D01*
X42251D01*
Y-55201D01*
X42301D01*
Y-55251D01*
X42350D01*
Y-55350D01*
X42400D01*
Y-55450D01*
X42450D01*
Y-55500D01*
X42500D01*
Y-55600D01*
X42550D01*
Y-55699D01*
X42600D01*
Y-55799D01*
X42650D01*
Y-55849D01*
X42700D01*
Y-55949D01*
X42749D01*
Y-56049D01*
X42799D01*
Y-56148D01*
X42849D01*
Y-56198D01*
X42899D01*
Y-56298D01*
X42949D01*
Y-56398D01*
X42999D01*
Y-56447D01*
X43049D01*
Y-56547D01*
X43098D01*
Y-56647D01*
X43148D01*
Y-56747D01*
X43198D01*
Y-56797D01*
X43248D01*
Y-56896D01*
X43298D01*
Y-56996D01*
X43348D01*
Y-57096D01*
X43398D01*
Y-57146D01*
X43448D01*
Y-57245D01*
X43497D01*
Y-57345D01*
X43547D01*
Y-57445D01*
X43597D01*
Y-57495D01*
X43647D01*
Y-57594D01*
X43697D01*
Y-57694D01*
X43747D01*
Y-57744D01*
X43797D01*
Y-57844D01*
X43846D01*
Y-57943D01*
X43896D01*
Y-58043D01*
X43946D01*
Y-58093D01*
X43996D01*
Y-58193D01*
X44046D01*
Y-58293D01*
X44096D01*
Y-58392D01*
X44146D01*
Y-58442D01*
X44196D01*
Y-58542D01*
X44245D01*
Y-58642D01*
X44295D01*
Y-58692D01*
X33723D01*
Y-58642D01*
X33773D01*
Y-58592D01*
X33823D01*
Y-58492D01*
X33873D01*
Y-58392D01*
X33923D01*
Y-58293D01*
X33973D01*
Y-58243D01*
X34023D01*
Y-58143D01*
X34073D01*
Y-58043D01*
X34122D01*
Y-57943D01*
X34172D01*
Y-57894D01*
X34222D01*
Y-57794D01*
X34272D01*
Y-57694D01*
X34322D01*
Y-57594D01*
X34372D01*
Y-57545D01*
X34422D01*
Y-57445D01*
X34471D01*
Y-57345D01*
X34521D01*
Y-57295D01*
X34571D01*
Y-57196D01*
X34621D01*
Y-57096D01*
X34671D01*
Y-56996D01*
X34721D01*
Y-56946D01*
X34771D01*
Y-56846D01*
X34821D01*
Y-56747D01*
X34870D01*
Y-56647D01*
X34920D01*
Y-56597D01*
X34970D01*
Y-56497D01*
X35020D01*
Y-56398D01*
X35070D01*
Y-56298D01*
X35120D01*
Y-56248D01*
X35170D01*
Y-56148D01*
X35219D01*
Y-56049D01*
X35269D01*
Y-55999D01*
X35319D01*
Y-55899D01*
X35369D01*
Y-55799D01*
X35419D01*
Y-55699D01*
X35469D01*
Y-55650D01*
X35519D01*
Y-55550D01*
X35568D01*
Y-55450D01*
X35618D01*
Y-55350D01*
X35668D01*
Y-55300D01*
X35718D01*
Y-55201D01*
X35768D01*
Y-55101D01*
X35818D01*
Y-55001D01*
X35868D01*
Y-54952D01*
X35918D01*
Y-54852D01*
X35967D01*
Y-54752D01*
X36017D01*
Y-54702D01*
X36067D01*
Y-54602D01*
X36117D01*
Y-54503D01*
X36167D01*
Y-54403D01*
X36217D01*
Y-54353D01*
X36267D01*
Y-54253D01*
X36316D01*
Y-54154D01*
X36366D01*
Y-54054D01*
X36416D01*
Y-54004D01*
X36466D01*
Y-53904D01*
X36516D01*
Y-53804D01*
X36566D01*
Y-53755D01*
X36616D01*
Y-53655D01*
X36666D01*
Y-53555D01*
X36715D01*
Y-53456D01*
X36765D01*
Y-53406D01*
X36815D01*
Y-53306D01*
X36865D01*
Y-53206D01*
X36915D01*
Y-53106D01*
X36965D01*
Y-53057D01*
X37015D01*
Y-52957D01*
X37064D01*
Y-52857D01*
X37114D01*
Y-52757D01*
X37164D01*
Y-52707D01*
X37214D01*
Y-52608D01*
X37264D01*
Y-52508D01*
X37314D01*
Y-52458D01*
X37364D01*
Y-52358D01*
X37414D01*
Y-52259D01*
X37463D01*
Y-52159D01*
X37513D01*
Y-52109D01*
X37563D01*
Y-52009D01*
X37613D01*
Y-51910D01*
X37663D01*
Y-51810D01*
X37713D01*
Y-51760D01*
X37763D01*
Y-51660D01*
X37813D01*
Y-51560D01*
X37862D01*
Y-51461D01*
X37912D01*
Y-51411D01*
X37962D01*
Y-51311D01*
X38012D01*
Y-51211D01*
X38062D01*
Y-51162D01*
X38112D01*
Y-51062D01*
X38162D01*
Y-50962D01*
X38211D01*
Y-50862D01*
X38261D01*
Y-50813D01*
X38311D01*
Y-50713D01*
X38361D01*
Y-50613D01*
X38411D01*
Y-50513D01*
X38461D01*
Y-50463D01*
X38511D01*
Y-50364D01*
X38561D01*
Y-50264D01*
X38610D01*
Y-50164D01*
X38660D01*
Y-50114D01*
X38710D01*
Y-50015D01*
X38760D01*
Y-49915D01*
X38810D01*
Y-49865D01*
X38860D01*
Y-49765D01*
X38910D01*
Y-49666D01*
X38959D01*
Y-49566D01*
D02*
G37*
%LPD*%
D13*
X128701Y-46000D02*
X129200Y-45500D01*
X130200D01*
X130700Y-46000D01*
Y-48000D01*
X130200Y-48500D01*
X129200D01*
X128701Y-48000D01*
Y-47000D01*
X129700D01*
X127701Y-48500D02*
Y-45500D01*
X125702Y-48500D01*
Y-45500D01*
X124702D02*
Y-48500D01*
X123202D01*
X122703Y-48000D01*
Y-46000D01*
X123202Y-45500D01*
X124702D01*
X128701Y-58000D02*
X129200Y-57500D01*
X130200D01*
X130700Y-58000D01*
Y-58500D01*
X130200Y-59000D01*
X129200D01*
X128701Y-59500D01*
Y-60000D01*
X129200Y-60500D01*
X130200D01*
X130700Y-60000D01*
Y-69500D02*
Y-71500D01*
X129700Y-72500D01*
X128701Y-71500D01*
Y-69500D01*
X127701D02*
Y-72500D01*
X126201D01*
X125702Y-72000D01*
Y-70000D01*
X126201Y-69500D01*
X127701D01*
X124702D02*
Y-72500D01*
X123202D01*
X122703Y-72000D01*
Y-70000D01*
X123202Y-69500D01*
X124702D01*
X122000Y-120201D02*
X122500Y-120701D01*
Y-121700D01*
X122000Y-122200D01*
X120000D01*
X119501Y-121700D01*
Y-120701D01*
X120000Y-120201D01*
X121000D01*
Y-121200D01*
X119501Y-119201D02*
X122500D01*
X119501Y-117202D01*
X122500D01*
Y-116202D02*
X119501D01*
Y-114702D01*
X120000Y-114203D01*
X122000D01*
X122500Y-114702D01*
Y-116202D01*
X107000Y-120201D02*
X107500Y-120701D01*
Y-121700D01*
X107000Y-122200D01*
X106500D01*
X106000Y-121700D01*
Y-120701D01*
X105500Y-120201D01*
X105000D01*
X104500Y-120701D01*
Y-121700D01*
X105000Y-122200D01*
X107000Y-117202D02*
X107500Y-117701D01*
Y-118701D01*
X107000Y-119201D01*
X105000D01*
X104500Y-118701D01*
Y-117701D01*
X105000Y-117202D01*
X107500Y-116202D02*
X104500D01*
Y-114203D01*
X102500Y-120201D02*
X102999Y-120701D01*
Y-121700D01*
X102500Y-122200D01*
X102000D01*
X101500Y-121700D01*
Y-120701D01*
X101000Y-120201D01*
X100500D01*
X100001Y-120701D01*
Y-121700D01*
X100500Y-122200D01*
X102999Y-119201D02*
X100001D01*
Y-117701D01*
X100500Y-117202D01*
X102500D01*
X102999Y-117701D01*
Y-119201D01*
X100001Y-116202D02*
X102000D01*
X102999Y-115202D01*
X102000Y-114203D01*
X100001D01*
X101500D01*
Y-116202D01*
X86999Y-122200D02*
X85000D01*
X84000Y-121200D01*
X85000Y-120201D01*
X86999D01*
X86500Y-117202D02*
X86999Y-117701D01*
Y-118701D01*
X86500Y-119201D01*
X86000D01*
X85500Y-118701D01*
Y-117701D01*
X85000Y-117202D01*
X84500D01*
X84000Y-117701D01*
Y-118701D01*
X84500Y-119201D01*
D51*
X31500Y-121800D02*
Y-115136D01*
X51500Y-121800D02*
Y-115136D01*
X54832Y-118468D02*
X48168D01*
M02*
