G04*
G04 #@! TF.GenerationSoftware,Altium Limited,Altium Designer,22.0.2 (36)*
G04*
G04 Layer_Color=65535*
%FSLAX25Y25*%
%MOIN*%
G70*
G04*
G04 #@! TF.SameCoordinates,CF928A09-1532-4027-B1E1-A307E99A3D78*
G04*
G04*
G04 #@! TF.FilePolarity,Positive*
G04*
G01*
G75*
%ADD10C,0.00984*%
%ADD11C,0.01000*%
%ADD12C,0.00787*%
%ADD13C,0.00800*%
%ADD14C,0.00600*%
D10*
X68504Y-50421D02*
G03*
X68504Y-50421I-492J0D01*
G01*
X60650Y-42654D02*
G03*
X60650Y-42654I-492J0D01*
G01*
X78807Y-64264D02*
G03*
X78807Y-64264I-492J0D01*
G01*
X91307D02*
G03*
X91307Y-64264I-492J0D01*
G01*
D11*
X30500Y-6500D02*
G03*
X30500Y-6500I-500J0D01*
G01*
D12*
X69095Y-47272D02*
Y-43728D01*
X80905Y-47272D02*
Y-43728D01*
X69095Y-47272D02*
X80905D01*
X69095Y-43728D02*
X80905D01*
X43567Y-28933D02*
X45043D01*
X43567D02*
Y-27457D01*
Y-9543D02*
Y-8067D01*
X45043D01*
X62957D02*
X64433D01*
Y-9543D02*
Y-8067D01*
X62957Y-28933D02*
X64433D01*
Y-27457D01*
X54449Y-39209D02*
Y-38913D01*
Y-53087D02*
Y-52791D01*
X35551Y-53087D02*
X54449D01*
X35551Y-39209D02*
Y-38913D01*
Y-53087D02*
Y-52791D01*
Y-38913D02*
X54449D01*
X29591Y-27488D02*
Y-13512D01*
X3409D02*
X3567D01*
X29433D02*
X29591D01*
X3409Y-27488D02*
Y-13512D01*
Y-27488D02*
X3567D01*
X29433D02*
X29591D01*
X6500Y-53575D02*
Y-50425D01*
X67685Y-82177D02*
X68276D01*
X67685Y-66823D02*
X68276D01*
X77724Y-82177D02*
X78315D01*
X77724Y-66823D02*
X78315D01*
X67685Y-82177D02*
Y-66823D01*
X78315Y-82177D02*
Y-66823D01*
X6500Y-48075D02*
Y-44925D01*
X80185Y-82177D02*
X80776D01*
X80185Y-66823D02*
X80776D01*
X90224Y-82177D02*
X90815D01*
X90224Y-66823D02*
X90815D01*
X80185Y-82177D02*
Y-66823D01*
X90815Y-82177D02*
Y-66823D01*
X6500Y-42575D02*
Y-39425D01*
D13*
X4000Y-54500D02*
X14000D01*
X4000D02*
Y-38500D01*
X14000D01*
Y-54500D02*
Y-38500D01*
X14501Y-34500D02*
X14001Y-34001D01*
X13001D01*
X12501Y-34500D01*
Y-35000D01*
X13001Y-35500D01*
X14001D01*
X14501Y-36000D01*
Y-36500D01*
X14001Y-36999D01*
X13001D01*
X12501Y-36500D01*
X15500Y-34001D02*
Y-36999D01*
X16500Y-36000D01*
X17500Y-36999D01*
Y-34001D01*
X18499D02*
Y-36999D01*
X19999D01*
X20499Y-36500D01*
Y-34500D01*
X19999Y-34001D01*
X18499D01*
X38002Y-59000D02*
Y-56001D01*
X39502D01*
X40002Y-56500D01*
Y-57500D01*
X39502Y-58000D01*
X38002D01*
X39002D02*
X40002Y-59000D01*
X43001Y-56001D02*
X41001D01*
Y-59000D01*
X43001D01*
X41001Y-57500D02*
X42001D01*
X46000Y-56500D02*
X45500Y-56001D01*
X44500D01*
X44000Y-56500D01*
Y-57000D01*
X44500Y-57500D01*
X45500D01*
X46000Y-58000D01*
Y-58500D01*
X45500Y-59000D01*
X44500D01*
X44000Y-58500D01*
X48999Y-56001D02*
X46999D01*
Y-59000D01*
X48999D01*
X46999Y-57500D02*
X47999D01*
X49998Y-56001D02*
X51998D01*
X50998D01*
Y-59000D01*
D14*
X4100Y-68000D02*
Y-65000D01*
X5599D01*
X6099Y-65500D01*
Y-66500D01*
X5599Y-67000D01*
X4100D01*
X7099Y-65000D02*
Y-68000D01*
X8099Y-67000D01*
X9098Y-68000D01*
Y-65000D01*
X10098Y-68000D02*
Y-65000D01*
X11598D01*
X12097Y-65500D01*
Y-66500D01*
X11598Y-67000D01*
X10098D01*
X11098D02*
X12097Y-68000D01*
X4100Y-63250D02*
Y-60251D01*
X5599D01*
X6099Y-60750D01*
Y-61750D01*
X5599Y-62250D01*
X4100D01*
X5100D02*
X6099Y-63250D01*
X9098Y-60251D02*
X7099D01*
Y-63250D01*
X9098D01*
X7099Y-61750D02*
X8099D01*
X12097Y-60750D02*
X11598Y-60251D01*
X10598D01*
X10098Y-60750D01*
Y-62750D01*
X10598Y-63250D01*
X11598D01*
X12097Y-62750D01*
Y-61750D01*
X11098D01*
X13097Y-63749D02*
X15096D01*
X18095Y-60251D02*
X16096D01*
Y-63250D01*
X18095D01*
X16096Y-61750D02*
X17096D01*
X19095Y-63250D02*
Y-60251D01*
X20595D01*
X21094Y-60750D01*
Y-61750D01*
X20595Y-62250D01*
X19095D01*
X20095D02*
X21094Y-63250D01*
X22094D02*
Y-60251D01*
X23594D01*
X24093Y-60750D01*
Y-61750D01*
X23594Y-62250D01*
X22094D01*
X23094D02*
X24093Y-63250D01*
X5599Y-55751D02*
X4600D01*
X4100Y-56250D01*
Y-58250D01*
X4600Y-58750D01*
X5599D01*
X6099Y-58250D01*
Y-56250D01*
X5599Y-55751D01*
X7099Y-58750D02*
Y-55751D01*
X9098Y-58750D01*
Y-55751D01*
X10098Y-59249D02*
X12097D01*
X13097Y-55751D02*
Y-58750D01*
X14597D01*
X15096Y-58250D01*
Y-57750D01*
X14597Y-57250D01*
X13097D01*
X14597D01*
X15096Y-56750D01*
Y-56250D01*
X14597Y-55751D01*
X13097D01*
X16096Y-58750D02*
Y-56750D01*
X17096Y-55751D01*
X18095Y-56750D01*
Y-58750D01*
Y-57250D01*
X16096D01*
X19095Y-55751D02*
X21094D01*
X20095D01*
Y-58750D01*
X22094Y-55751D02*
X24093D01*
X23094D01*
Y-58750D01*
M02*
