G04*
G04 #@! TF.GenerationSoftware,Altium Limited,Altium Designer,21.9.2 (33)*
G04*
G04 Layer_Color=8388736*
%FSLAX25Y25*%
%MOIN*%
G70*
G04*
G04 #@! TF.SameCoordinates,1223ADA4-3529-4512-854F-09A9CE28B868*
G04*
G04*
G04 #@! TF.FilePolarity,Negative*
G04*
G01*
G75*
G04:AMPARAMS|DCode=18|XSize=15.75mil|YSize=19.68mil|CornerRadius=3.94mil|HoleSize=0mil|Usage=FLASHONLY|Rotation=270.000|XOffset=0mil|YOffset=0mil|HoleType=Round|Shape=RoundedRectangle|*
%AMROUNDEDRECTD18*
21,1,0.01575,0.01181,0,0,270.0*
21,1,0.00787,0.01968,0,0,270.0*
1,1,0.00787,-0.00591,-0.00394*
1,1,0.00787,-0.00591,0.00394*
1,1,0.00787,0.00591,0.00394*
1,1,0.00787,0.00591,-0.00394*
%
%ADD18ROUNDEDRECTD18*%
G04:AMPARAMS|DCode=20|XSize=29.13mil|YSize=94.49mil|CornerRadius=7.28mil|HoleSize=0mil|Usage=FLASHONLY|Rotation=180.000|XOffset=0mil|YOffset=0mil|HoleType=Round|Shape=RoundedRectangle|*
%AMROUNDEDRECTD20*
21,1,0.02913,0.07992,0,0,180.0*
21,1,0.01457,0.09449,0,0,180.0*
1,1,0.01457,-0.00728,0.03996*
1,1,0.01457,0.00728,0.03996*
1,1,0.01457,0.00728,-0.03996*
1,1,0.01457,-0.00728,-0.03996*
%
%ADD20ROUNDEDRECTD20*%
G04:AMPARAMS|DCode=21|XSize=19.68mil|YSize=23.62mil|CornerRadius=4.92mil|HoleSize=0mil|Usage=FLASHONLY|Rotation=0.000|XOffset=0mil|YOffset=0mil|HoleType=Round|Shape=RoundedRectangle|*
%AMROUNDEDRECTD21*
21,1,0.01968,0.01378,0,0,0.0*
21,1,0.00984,0.02362,0,0,0.0*
1,1,0.00984,0.00492,-0.00689*
1,1,0.00984,-0.00492,-0.00689*
1,1,0.00984,-0.00492,0.00689*
1,1,0.00984,0.00492,0.00689*
%
%ADD21ROUNDEDRECTD21*%
G04:AMPARAMS|DCode=26|XSize=15.75mil|YSize=19.68mil|CornerRadius=3.94mil|HoleSize=0mil|Usage=FLASHONLY|Rotation=0.000|XOffset=0mil|YOffset=0mil|HoleType=Round|Shape=RoundedRectangle|*
%AMROUNDEDRECTD26*
21,1,0.01575,0.01181,0,0,0.0*
21,1,0.00787,0.01968,0,0,0.0*
1,1,0.00787,0.00394,-0.00591*
1,1,0.00787,-0.00394,-0.00591*
1,1,0.00787,-0.00394,0.00591*
1,1,0.00787,0.00394,0.00591*
%
%ADD26ROUNDEDRECTD26*%
%ADD27O,0.01575X0.03543*%
%ADD28O,0.03543X0.01575*%
%ADD29R,0.13976X0.13976*%
G04:AMPARAMS|DCode=30|XSize=27.56mil|YSize=29.53mil|CornerRadius=8.37mil|HoleSize=0mil|Usage=FLASHONLY|Rotation=270.000|XOffset=0mil|YOffset=0mil|HoleType=Round|Shape=RoundedRectangle|*
%AMROUNDEDRECTD30*
21,1,0.02756,0.01280,0,0,270.0*
21,1,0.01083,0.02953,0,0,270.0*
1,1,0.01673,-0.00640,-0.00541*
1,1,0.01673,-0.00640,0.00541*
1,1,0.01673,0.00640,0.00541*
1,1,0.01673,0.00640,-0.00541*
%
%ADD30ROUNDEDRECTD30*%
G04:AMPARAMS|DCode=31|XSize=27.56mil|YSize=37.4mil|CornerRadius=8.37mil|HoleSize=0mil|Usage=FLASHONLY|Rotation=180.000|XOffset=0mil|YOffset=0mil|HoleType=Round|Shape=RoundedRectangle|*
%AMROUNDEDRECTD31*
21,1,0.02756,0.02067,0,0,180.0*
21,1,0.01083,0.03740,0,0,180.0*
1,1,0.01673,-0.00541,0.01034*
1,1,0.01673,0.00541,0.01034*
1,1,0.01673,0.00541,-0.01034*
1,1,0.01673,-0.00541,-0.01034*
%
%ADD31ROUNDEDRECTD31*%
G04:AMPARAMS|DCode=32|XSize=45.28mil|YSize=62.99mil|CornerRadius=12.8mil|HoleSize=0mil|Usage=FLASHONLY|Rotation=270.000|XOffset=0mil|YOffset=0mil|HoleType=Round|Shape=RoundedRectangle|*
%AMROUNDEDRECTD32*
21,1,0.04528,0.03740,0,0,270.0*
21,1,0.01968,0.06299,0,0,270.0*
1,1,0.02559,-0.01870,-0.00984*
1,1,0.02559,-0.01870,0.00984*
1,1,0.02559,0.01870,0.00984*
1,1,0.02559,0.01870,-0.00984*
%
%ADD32ROUNDEDRECTD32*%
G04:AMPARAMS|DCode=33|XSize=27.56mil|YSize=29.53mil|CornerRadius=8.37mil|HoleSize=0mil|Usage=FLASHONLY|Rotation=180.000|XOffset=0mil|YOffset=0mil|HoleType=Round|Shape=RoundedRectangle|*
%AMROUNDEDRECTD33*
21,1,0.02756,0.01280,0,0,180.0*
21,1,0.01083,0.02953,0,0,180.0*
1,1,0.01673,-0.00541,0.00640*
1,1,0.01673,0.00541,0.00640*
1,1,0.01673,0.00541,-0.00640*
1,1,0.01673,-0.00541,-0.00640*
%
%ADD33ROUNDEDRECTD33*%
G04:AMPARAMS|DCode=34|XSize=68.9mil|YSize=45.28mil|CornerRadius=12.8mil|HoleSize=0mil|Usage=FLASHONLY|Rotation=0.000|XOffset=0mil|YOffset=0mil|HoleType=Round|Shape=RoundedRectangle|*
%AMROUNDEDRECTD34*
21,1,0.06890,0.01968,0,0,0.0*
21,1,0.04331,0.04528,0,0,0.0*
1,1,0.02559,0.02165,-0.00984*
1,1,0.02559,-0.02165,-0.00984*
1,1,0.02559,-0.02165,0.00984*
1,1,0.02559,0.02165,0.00984*
%
%ADD34ROUNDEDRECTD34*%
%ADD35C,0.20276*%
%ADD36C,0.12402*%
%ADD37C,0.06496*%
%ADD38C,0.06591*%
%ADD39C,0.16591*%
%ADD40C,0.02559*%
D18*
X67000Y-26575D02*
D03*
Y-23425D02*
D03*
X41000Y-12425D02*
D03*
Y-15575D02*
D03*
X37500Y-14425D02*
D03*
Y-17575D02*
D03*
X87000Y-40425D02*
D03*
Y-43575D02*
D03*
D20*
X6500Y-28177D02*
D03*
X11500D02*
D03*
X16500D02*
D03*
X21500D02*
D03*
X26500D02*
D03*
X6500Y-12823D02*
D03*
X11500D02*
D03*
X16500D02*
D03*
X21500D02*
D03*
X26500D02*
D03*
D21*
X11772Y-52000D02*
D03*
X8228D02*
D03*
X11772Y-46500D02*
D03*
X8228D02*
D03*
X11772Y-41000D02*
D03*
X8228D02*
D03*
D26*
X82425Y-50500D02*
D03*
X85575D02*
D03*
D27*
X47110Y-27752D02*
D03*
X49079D02*
D03*
X51047D02*
D03*
X53016D02*
D03*
X54984D02*
D03*
X56953D02*
D03*
X58921D02*
D03*
X60890D02*
D03*
Y-9248D02*
D03*
X58921D02*
D03*
X56953D02*
D03*
X54984D02*
D03*
X53016D02*
D03*
X51047D02*
D03*
X49079D02*
D03*
X47110D02*
D03*
D28*
X63252Y-25390D02*
D03*
Y-23421D02*
D03*
Y-21453D02*
D03*
Y-19484D02*
D03*
Y-17516D02*
D03*
Y-15547D02*
D03*
Y-13579D02*
D03*
Y-11610D02*
D03*
X44748D02*
D03*
Y-13579D02*
D03*
Y-15547D02*
D03*
Y-17516D02*
D03*
Y-19484D02*
D03*
Y-21453D02*
D03*
Y-23421D02*
D03*
Y-25390D02*
D03*
D29*
X54000Y-18500D02*
D03*
D30*
X47327Y-31500D02*
D03*
X50673D02*
D03*
X40327D02*
D03*
X43673D02*
D03*
X40173Y-28000D02*
D03*
X36827D02*
D03*
X19173Y-52000D02*
D03*
X15827D02*
D03*
X19173Y-46500D02*
D03*
X15827D02*
D03*
X26673D02*
D03*
X23327D02*
D03*
X15827Y-41000D02*
D03*
X19173D02*
D03*
D31*
X71260Y-50421D02*
D03*
X75000D02*
D03*
X78740D02*
D03*
Y-40579D02*
D03*
X75000D02*
D03*
X71260D02*
D03*
D32*
X55138Y-42654D02*
D03*
Y-49347D02*
D03*
X34862Y-42654D02*
D03*
Y-49347D02*
D03*
D33*
X83500Y-36827D02*
D03*
Y-40173D02*
D03*
X33000Y-32827D02*
D03*
Y-36173D02*
D03*
D34*
X73000Y-82472D02*
D03*
Y-66528D02*
D03*
X85500Y-82472D02*
D03*
Y-66528D02*
D03*
D35*
X85000Y-12500D02*
D03*
X12500Y-80500D02*
D03*
D36*
X31657Y-74315D02*
D03*
X51342D02*
D03*
D37*
X63153Y-113685D02*
D03*
X19847D02*
D03*
D38*
X99000Y-47200D02*
D03*
Y-59000D02*
D03*
Y-70800D02*
D03*
X85500Y-90500D02*
D03*
X97300D02*
D03*
X109100D02*
D03*
X120900D02*
D03*
D39*
X116000Y-59000D02*
D03*
X93950Y-107500D02*
D03*
X112450D02*
D03*
D40*
X49669Y-22831D02*
D03*
Y-18500D02*
D03*
Y-14169D02*
D03*
X54000Y-22831D02*
D03*
Y-18500D02*
D03*
Y-14169D02*
D03*
X58331Y-22831D02*
D03*
Y-18500D02*
D03*
Y-14169D02*
D03*
M02*
